<svg xmlns="http://www.w3.org/2000/svg" width="1920" height="659" fill="none"><g filter="url(#a)"><path stroke="url(#b)" stroke-width=".889" d="M733.104 542.574h464.346M.704 14.664V651M62.616 14.664V651M124.53 14.664V651m61.913-636.336V651m61.913-636.336V651m61.912-636.336V651M372.18 14.664V651m61.913-636.336V651m61.913-636.336V651M0 625.671h1919.3M557.919 14.664V651M0 586.567h1919.3M619.831 14.664V651M0 547.462h1919.3M681.744 14.664V651M0 508.358h1919.3M743.657 14.664V651M0 469.253h1919.3M805.57 14.664V651M0 430.149h1919.3M867.483 14.664 867.482 651M0 391.044h1919.3M929.395 14.664V651M0 351.94h1919.3M991.308 14.664V651M0 312.835h1919.3m-866.08-298.17V651M0 273.731h1919.3M1115.13 14.664V651M0 234.627h1919.3M1177.05 14.664V651M0 195.522h1919.3M1238.96 14.664V651M0 156.418h1919.3M1300.87 14.664V651M0 117.313h1919.3M1362.78 14.664V651M0 78.209h1919.3m-494.6-63.545V651M0 39.104h1919.3m-432.69-24.44V651M0 0h1919.3m-370.78 14.664V651m61.92-636.336V651m61.91-636.336V651m61.91-636.336V651m61.91-636.336V651m61.92-636.336V651M1920 14.664V651" shape-rendering="crispEdges"/></g><defs><radialGradient id="b" cx="0" cy="0" r="1" gradientTransform="matrix(0 364.134 -1073.94 0 960 286.866)" gradientUnits="userSpaceOnUse"><stop stop-color="#fff" stop-opacity=".2"/><stop offset=".6" stop-color="#fff" stop-opacity="0"/></radialGradient><filter id="a" width="1928.44" height="659.444" x="-4" y="-.444" color-interpolation-filters="sRGB" filterUnits="userSpaceOnUse"><feFlood flood-opacity="0" result="BackgroundImageFix"/><feColorMatrix in="SourceAlpha" result="hardAlpha" values="0 0 0 0 0 0 0 0 0 0 0 0 0 0 0 0 0 0 127 0"/><feOffset dy="4"/><feGaussianBlur stdDeviation="2"/><feComposite in2="hardAlpha" operator="out"/><feColorMatrix values="0 0 0 0 0 0 0 0 0 0 0 0 0 0 0 0 0 0 0.25 0"/><feBlend in2="BackgroundImageFix" result="effect1_dropShadow_95_156"/><feBlend in="SourceGraphic" in2="effect1_dropShadow_95_156" result="shape"/></filter></defs></svg>