<svg width="65" height="19" viewBox="0 0 65 19" fill="none" xmlns="http://www.w3.org/2000/svg">
<g clip-path="url(#clip0_245_188)">
<path d="M47.2733 13.9299C48.4338 13.9299 49.3747 12.9938 49.3747 11.839C49.3747 10.6842 48.4338 9.74805 47.2733 9.74805C46.1127 9.74805 45.1719 10.6842 45.1719 11.839C45.1719 12.9938 46.1127 13.9299 47.2733 13.9299Z" fill="#E62415"/>
<path d="M16.6847 0H19.4655V17.8437H16.6847V0ZM29.5932 12.3413C29.5932 15.1082 27.3181 15.3283 26.6229 15.3283C24.8849 15.3283 24.6321 13.709 24.6321 12.7343V5.83262H21.8355V12.7186C21.8197 14.4322 22.3095 15.8471 23.2575 16.7904C24.1184 17.5541 25.2153 18.0029 26.3671 18.0629C27.5189 18.123 28.6568 17.7906 29.5932 17.1206V17.8437H32.3898V5.83262H29.5932V12.3413ZM38.4254 1.79223H35.6288V5.83262H33.6854V8.45809H35.6288V17.8437H38.4254V8.45809H40.7164V5.83262H38.4254V1.79223ZM49.7697 14.4322C49.1377 14.9982 48.3003 15.3126 47.3839 15.3126C46.9184 15.3257 46.4551 15.2439 46.0225 15.0721C45.5899 14.9004 45.1973 14.6424 44.8687 14.314C44.5401 13.9855 44.2826 13.5937 44.1119 13.1625C43.9412 12.7313 43.8611 12.2699 43.8764 11.8067C43.8764 9.77868 45.3142 8.36376 47.3839 8.36376C48.2845 8.36376 49.1377 8.66247 49.7855 9.22844L50.2279 9.60575L52.1871 7.6563L51.6973 7.2161C50.5109 6.16314 48.9737 5.58607 47.3839 5.5968C43.75 5.5968 41.1114 8.20655 41.1114 11.791C41.0921 12.6174 41.2409 13.4391 41.5489 14.2067C41.8569 14.9744 42.3177 15.6722 42.9036 16.2581C43.4895 16.8441 44.1884 17.3061 44.9584 17.6164C45.7283 17.9267 46.5534 18.0789 47.3839 18.0638C49.0429 18.0638 50.5913 17.4821 51.7289 16.4288L52.2029 15.9886L50.2121 14.0392L49.7697 14.4322ZM62.6783 6.88595C61.8173 6.1223 60.7205 5.67344 59.5687 5.61342C58.4169 5.5534 57.2789 5.88581 56.3425 6.55581V0H53.5459V17.8437H56.3425V11.3508C56.3425 8.58386 58.6177 8.36376 59.3129 8.36376C61.0509 8.36376 61.3037 9.98306 61.3037 10.9578V17.8595H64.1003V10.9578C64.1846 9.467 63.6735 8.00345 62.6783 6.88595ZM12.5609 13.5675C12.0169 14.1237 11.3656 14.5648 10.6462 14.8647C9.92677 15.1645 9.15394 15.3169 8.37396 15.3126C5.13497 15.3126 2.78079 12.7815 2.78079 9.30704C2.78079 5.8169 5.13497 3.28576 8.37396 3.28576C9.93815 3.28576 11.4233 3.8989 12.5451 5.01511L12.9875 5.45531L14.9309 3.52158L14.5043 3.08139C13.7026 2.27006 12.7458 1.62672 11.6902 1.1893C10.6346 0.751875 9.50162 0.529241 8.35816 0.534526C3.60238 0.534526 0 4.30765 0 9.32276C0 14.3064 3.60238 18.0796 8.35816 18.0796C10.7123 18.0796 12.8927 17.1677 14.5043 15.517L14.9309 15.0768L13.0033 13.1116L12.5609 13.5675Z" fill="white"/>
</g>
<defs>
<clipPath id="clip0_245_188">
<rect width="64.1003" height="18.0796" fill="white"/>
</clipPath>
</defs>
</svg>
