<svg width="306" height="58" viewBox="0 0 306 58" fill="none" xmlns="http://www.w3.org/2000/svg">
<path d="M51.3018 0.591333C51.7576 10.605 45.0153 17.3007 34.325 17.9285C29.8909 18.1675 25.3658 18.4066 21.114 19.4529C12.2155 21.6648 7.84217 27.3741 8.41922 35.0264C9.05701 43.6352 15.4651 50.5101 23.9384 51.646C32.4116 52.7818 40.5205 48.0292 43.436 40.2275C45.0153 35.953 44.6204 31.9475 41.2494 28.6296C38.2428 25.6703 34.6894 24.9529 30.8628 25.9692C30.4072 26.0888 30.225 26.6268 30.5287 26.9855C31.9258 28.6894 33.5961 30.2736 33.9909 32.1269C34.4161 34.309 33.7479 37.1786 32.5028 39.0917C30.4376 42.3199 25.791 42.7982 22.2073 40.8552C18.654 38.9422 17.1658 35.2057 18.1984 32.0372C20.1421 31.6486 22.2984 31.828 23.088 30.8714C23.6651 30.1541 23.4828 28.8089 23.331 27.5236C23.2399 26.7165 22.8754 25.9692 22.2681 25.4611C26.3376 24.6241 30.4376 23.7573 34.5376 22.9203C37.2405 22.3524 39.9739 21.9936 42.6161 21.2763C49.0239 19.4828 53.4582 15.4175 55.736 8.87132C58.5604 15.298 56.3435 21.1268 49.1151 27.0752C51.2106 34.2193 50.4212 41.1243 45.9265 47.2821C40.2168 55.1135 32.2902 58.5512 22.6628 57.0267C11.7599 55.3227 4.34961 49.0456 1.1 38.5835C-2.3622 27.4937 2.55777 15.2083 12.914 8.2137C21.8732 2.17558 40.1865 -1.50107 51.3018 0.591333Z" fill="url(#paint0_linear_124_97)"/>
<path d="M93.0096 25.5056C92.7951 24.8194 92.4986 24.2051 92.1207 23.6629C91.7511 23.1122 91.3044 22.642 90.7809 22.2522C90.2654 21.8625 89.673 21.5702 89.0025 21.3753C88.3325 21.172 87.6025 21.0703 86.8125 21.0703C85.395 21.0703 84.1327 21.4219 83.0249 22.1251C81.9164 22.8284 81.0451 23.862 80.4095 25.226C79.7821 26.5816 79.4687 28.2337 79.4687 30.1823C79.4687 32.1479 79.7821 33.8128 80.4095 35.1768C81.0363 36.5409 81.9083 37.5787 83.0249 38.2904C84.1415 38.9936 85.4382 39.3452 86.9157 39.3452C88.2556 39.3452 89.4153 39.091 90.3943 38.5827C91.382 38.0743 92.142 37.3542 92.675 36.4223C93.2073 35.4818 93.4738 34.3804 93.4738 33.1181L94.5559 33.2832H87.3923V29.5978H98.0989V32.7241C98.0989 34.9523 97.6179 36.8797 96.6558 38.5064C95.6938 40.1332 94.3708 41.3871 92.6875 42.2682C91.0042 43.1408 89.0713 43.5771 86.89 43.5771C84.4592 43.5771 82.3249 43.0391 80.4865 41.9632C78.6568 40.8787 77.2268 39.341 76.196 37.35C75.1741 35.3505 74.6631 32.9782 74.6631 30.2332C74.6631 28.132 74.9637 26.2554 75.5648 24.6033C76.1747 22.9512 77.0254 21.549 78.1157 20.3968C79.2066 19.2361 80.4865 18.355 81.9552 17.7534C83.424 17.1434 85.0216 16.8384 86.748 16.8384C88.208 16.8384 89.5698 17.0502 90.8321 17.4738C92.0951 17.889 93.216 18.482 94.195 19.253C95.1827 20.024 95.9947 20.939 96.6302 21.998C97.2657 23.0571 97.6823 24.2263 97.88 25.5056H93.0096ZM107.904 17.1942V43.2213H103.24V17.1942H107.904ZM119.121 43.6152C117.866 43.6152 116.737 43.395 115.732 42.9544C114.736 42.5054 113.946 41.8445 113.361 40.9719C112.786 40.0992 112.498 39.0233 112.498 37.7439C112.498 36.6425 112.704 35.7318 113.117 35.0116C113.529 34.2914 114.091 33.7153 114.804 33.2832C115.518 32.8511 116.321 32.525 117.214 32.3047C118.115 32.0759 119.047 31.9107 120.009 31.809C121.169 31.6904 122.109 31.5845 122.831 31.4913C123.552 31.3897 124.077 31.2372 124.403 31.0338C124.738 30.822 124.905 30.4958 124.905 30.0553V29.979C124.905 29.0216 124.618 28.2803 124.042 27.755C123.467 27.2298 122.638 26.9671 121.556 26.9671C120.413 26.9671 119.507 27.2128 118.837 27.7042C118.175 28.1956 117.729 28.776 117.497 29.4452L113.142 28.8352C113.486 27.6491 114.053 26.6578 114.843 25.8615C115.633 25.0565 116.6 24.455 117.742 24.0568C118.884 23.6502 120.147 23.4468 121.529 23.4468C122.483 23.4468 123.432 23.5569 124.377 23.7773C125.322 23.9976 126.185 24.3618 126.967 24.8702C127.749 25.3701 128.375 26.052 128.848 26.9162C129.329 27.7804 129.569 28.8607 129.569 30.1569V43.2213H125.086V40.5398H124.931C124.648 41.082 124.248 41.5904 123.733 42.0649C123.226 42.5308 122.586 42.9078 121.813 43.1959C121.049 43.4755 120.151 43.6152 119.121 43.6152ZM120.332 40.2348C121.268 40.2348 122.079 40.0526 122.767 39.6883C123.454 39.3155 123.982 38.8241 124.351 38.2142C124.729 37.6041 124.918 36.9391 124.918 36.2189V33.9186C124.772 34.0373 124.523 34.1474 124.171 34.2491C123.828 34.3507 123.441 34.4397 123.011 34.516C122.582 34.5922 122.157 34.66 121.736 34.7193C121.315 34.7786 120.95 34.8294 120.641 34.8718C119.945 34.965 119.323 35.1175 118.773 35.3293C118.223 35.5411 117.789 35.8376 117.472 36.2189C117.153 36.5917 116.994 37.0746 116.994 37.6677C116.994 38.5149 117.308 39.1546 117.935 39.5867C118.562 40.0188 119.361 40.2348 120.332 40.2348ZM139.649 31.7836V43.2213H134.985V23.701H139.442V27.0179H139.674C140.13 25.925 140.855 25.0565 141.852 24.4127C142.856 23.7688 144.098 23.4468 145.575 23.4468C146.941 23.4468 148.13 23.7349 149.144 24.311C150.166 24.8871 150.956 25.7216 151.514 26.8146C152.082 27.9075 152.361 29.2335 152.352 30.7924V43.2213H147.688V31.504C147.688 30.1993 147.345 29.1784 146.657 28.4413C145.979 27.7042 145.038 27.3356 143.836 27.3356C143.02 27.3356 142.294 27.5136 141.658 27.8694C141.032 28.2167 140.538 28.7209 140.177 29.3817C139.824 30.0426 139.649 30.8432 139.649 31.7836ZM166.451 43.6025C164.475 43.6025 162.779 43.1747 161.362 42.319C159.953 41.4633 158.867 40.2814 158.102 38.7733C157.346 37.2568 156.968 35.5115 156.968 33.5374C156.968 31.5549 157.355 29.8053 158.128 28.2888C158.901 26.7638 159.992 25.5776 161.401 24.7304C162.818 23.8747 164.493 23.4468 166.425 23.4468C168.032 23.4468 169.453 23.7391 170.69 24.3237C171.935 24.8998 172.928 25.7174 173.666 26.7765C174.404 27.827 174.825 29.0555 174.929 30.462H170.471C170.29 29.5215 169.861 28.7378 169.183 28.1109C168.513 27.4755 167.615 27.1577 166.49 27.1577C165.536 27.1577 164.699 27.4119 163.977 27.9202C163.256 28.4201 162.693 29.1402 162.29 30.0807C161.894 31.0211 161.697 32.1479 161.697 33.4612C161.697 34.7913 161.894 35.9351 162.29 36.8924C162.684 37.8414 163.239 38.5742 163.952 39.091C164.673 39.5994 165.519 39.8535 166.49 39.8535C167.177 39.8535 167.791 39.7265 168.332 39.4723C168.882 39.2097 169.341 38.8327 169.71 38.3413C170.08 37.8498 170.334 37.2525 170.471 36.5493H174.929C174.817 37.9303 174.404 39.1546 173.692 40.2221C172.979 41.2811 172.008 42.1114 170.78 42.713C169.552 43.3061 168.108 43.6025 166.451 43.6025ZM188.245 43.6025C186.261 43.6025 184.547 43.1959 183.104 42.3826C181.67 41.5608 180.566 40.4 179.793 38.9004C179.02 37.3923 178.634 35.6174 178.634 33.5755C178.634 31.5676 179.02 29.8053 179.793 28.2888C180.575 26.7638 181.666 25.5776 183.066 24.7304C184.466 23.8747 186.111 23.4468 188 23.4468C189.22 23.4468 190.371 23.6417 191.453 24.0314C192.544 24.4127 193.506 25.0058 194.339 25.8106C195.181 26.6155 195.842 27.6406 196.323 28.8861C196.804 30.123 197.044 31.5972 197.044 33.3087V34.7193H180.824V31.6184H192.574C192.566 30.7373 192.372 29.9536 191.994 29.2673C191.616 28.5726 191.088 28.0261 190.409 27.6279C189.739 27.2298 188.958 27.0306 188.065 27.0306C187.111 27.0306 186.274 27.2594 185.552 27.7169C184.831 28.1659 184.268 28.759 183.864 29.4961C183.469 30.2247 183.268 31.0254 183.259 31.898V34.6049C183.259 35.7402 183.469 36.7145 183.89 37.5279C184.311 38.3327 184.9 38.9512 185.655 39.3833C186.411 39.8069 187.296 40.0188 188.309 40.0188C188.988 40.0188 189.602 39.9256 190.152 39.7392C190.701 39.5443 191.178 39.2605 191.582 38.8877C191.986 38.5149 192.29 38.0532 192.497 37.5025L196.851 37.9854C196.576 39.1207 196.052 40.1119 195.28 40.9592C194.515 41.7979 193.536 42.4503 192.342 42.9163C191.148 43.3738 189.783 43.6025 188.245 43.6025ZM198.92 21.1466V17.1942H219.972V21.1466H211.817V43.2213H207.075V21.1466H198.92ZM230.441 43.6025C228.457 43.6025 226.743 43.1959 225.301 42.3826C223.867 41.5608 222.762 40.4 221.989 38.9004C221.216 37.3923 220.83 35.6174 220.83 33.5755C220.83 31.5676 221.216 29.8053 221.989 28.2888C222.771 26.7638 223.862 25.5776 225.262 24.7304C226.662 23.8747 228.307 23.4468 230.196 23.4468C231.416 23.4468 232.567 23.6417 233.649 24.0314C234.74 24.4127 235.702 25.0058 236.535 25.8106C237.377 26.6155 238.039 27.6406 238.52 28.8861C239.001 30.123 239.241 31.5972 239.241 33.3087V34.7193H223.02V31.6184H234.77C234.761 30.7373 234.568 29.9536 234.19 29.2673C233.812 28.5726 233.285 28.0261 232.606 27.6279C231.936 27.2298 231.154 27.0306 230.261 27.0306C229.307 27.0306 228.47 27.2594 227.749 27.7169C227.027 28.1659 226.464 28.759 226.061 29.4961C225.666 30.2247 225.464 31.0254 225.455 31.898V34.6049C225.455 35.7402 225.666 36.7145 226.087 37.5279C226.508 38.3327 227.096 38.9512 227.852 39.3833C228.607 39.8069 229.492 40.0188 230.506 40.0188C231.184 40.0188 231.798 39.9256 232.348 39.7392C232.898 39.5443 233.375 39.2605 233.778 38.8877C234.182 38.5149 234.487 38.0532 234.693 37.5025L239.048 37.9854C238.773 39.1207 238.249 40.1119 237.476 40.9592C236.711 41.7979 235.732 42.4503 234.538 42.9163C233.345 43.3738 231.979 43.6025 230.441 43.6025ZM252.545 43.6025C250.569 43.6025 248.873 43.1747 247.455 42.319C246.047 41.4633 244.96 40.2814 244.196 38.7733C243.44 37.2568 243.062 35.5115 243.062 33.5374C243.062 31.5549 243.448 29.8053 244.221 28.2888C244.994 26.7638 246.085 25.5776 247.494 24.7304C248.911 23.8747 250.586 23.4468 252.518 23.4468C254.125 23.4468 255.547 23.7391 256.783 24.3237C258.029 24.8998 259.021 25.7174 259.76 26.7765C260.498 27.827 260.919 29.0555 261.022 30.462H256.564C256.384 29.5215 255.954 28.7378 255.276 28.1109C254.606 27.4755 253.708 27.1577 252.583 27.1577C251.63 27.1577 250.792 27.4119 250.071 27.9202C249.349 28.4201 248.786 29.1402 248.383 30.0807C247.988 31.0211 247.79 32.1479 247.79 33.4612C247.79 34.7913 247.988 35.9351 248.383 36.8924C248.778 37.8414 249.332 38.5742 250.045 39.091C250.766 39.5994 251.613 39.8535 252.583 39.8535C253.27 39.8535 253.885 39.7265 254.426 39.4723C254.975 39.2097 255.435 38.8327 255.804 38.3413C256.173 37.8498 256.427 37.2525 256.564 36.5493H261.022C260.911 37.9303 260.498 39.1546 259.785 40.2221C259.072 41.2811 258.102 42.1114 256.873 42.713C255.645 43.3061 254.202 43.6025 252.545 43.6025ZM270.241 31.7836V43.2213H265.577V17.1942H270.138V27.0179H270.37C270.834 25.9165 271.551 25.0481 272.522 24.4127C273.501 23.7688 274.746 23.4468 276.258 23.4468C277.632 23.4468 278.83 23.7306 279.852 24.2983C280.874 24.8659 281.665 25.6962 282.223 26.7891C282.79 27.8821 283.074 29.2165 283.074 30.7924V43.2213H278.41V31.504C278.41 30.1908 278.066 29.1699 277.379 28.4413C276.7 27.7042 275.747 27.3356 274.518 27.3356C273.694 27.3356 272.955 27.5136 272.303 27.8694C271.658 28.2167 271.152 28.7209 270.782 29.3817C270.422 30.0426 270.241 30.8432 270.241 31.7836ZM290.743 50.5414C290.108 50.5414 289.52 50.4906 288.978 50.3889C288.446 50.2957 288.02 50.1856 287.703 50.0585L288.785 46.4747C289.464 46.6696 290.069 46.7627 290.602 46.7543C291.134 46.7458 291.602 46.5806 292.006 46.2586C292.419 45.9452 292.766 45.4199 293.05 44.6828L293.449 43.628L286.273 23.701H291.22L295.781 38.4429H295.987L300.561 23.701H305.521L297.598 45.5851C297.228 46.6187 296.738 47.5041 296.129 48.2412C295.519 48.9867 294.772 49.5544 293.887 49.9441C293.011 50.3423 291.963 50.5414 290.743 50.5414Z" fill="black"/>
<defs>
<linearGradient id="paint0_linear_124_97" x1="-11.9971" y1="48.8241" x2="62.5883" y2="12.647" gradientUnits="userSpaceOnUse">
<stop offset="0.0416157" stop-color="#0653E8"/>
<stop offset="0.668269" stop-color="#2BE4AC"/>
</linearGradient>
</defs>
</svg>
