<svg width="148" height="45" viewBox="0 0 148 45" fill="none" xmlns="http://www.w3.org/2000/svg">
<g clip-path="url(#clip0_1996_47195)">
<path d="M41.3064 16.1303V23.4623C41.3064 25.2495 41.079 26.945 40.5785 28.5489C40.1236 30.1069 39.4867 31.5733 38.6224 32.8564C37.7581 34.1395 36.7118 35.2393 35.4835 36.2016C34.2552 37.2098 32.9359 37.943 31.4347 38.4929L24.2925 32.5815H25.3388C26.6581 32.5815 27.8864 32.3982 29.0237 31.9399C30.1155 31.5275 31.0708 30.8859 31.8896 30.1069C32.663 29.2821 33.2999 28.3198 33.7093 27.22C34.1642 26.1202 34.3917 24.8371 34.3917 23.4623V16.1303C34.3917 14.7556 34.1642 13.4725 33.7093 12.3727C33.2999 11.2729 32.663 10.3106 31.8896 9.48574C31.1163 8.70672 30.161 8.06517 29.0237 7.65275C27.9319 7.1945 26.7036 6.96538 25.3843 6.96538H16.0131C14.6483 6.96538 13.42 7.1945 12.2827 7.65275C11.1909 8.06517 10.2356 8.70672 9.46226 9.48574C8.64341 10.3106 8.00653 11.2729 7.5971 12.3727C7.14219 13.4725 6.91473 14.7556 6.91473 16.1303V23.4623C6.91473 24.8371 7.14219 26.1202 7.5971 27.22C8.00653 28.3198 8.64341 29.2821 9.46226 30.1069C10.2356 30.8859 11.1909 31.5275 12.2827 31.9399C13.1016 32.2607 13.9659 32.444 14.9213 32.5356L22.9278 39.5927C22.8823 39.5927 22.8368 39.5927 22.8368 39.5927H16.0131C13.693 39.5927 11.6004 39.1802 9.64423 38.4012C7.68809 37.5764 6.0049 36.4766 4.54916 35.056C3.13892 33.5896 2.00163 31.8941 1.18278 29.9236C0.409425 27.9532 0 25.7994 0 23.4623V16.1303C0 13.7933 0.409425 11.6395 1.18278 9.66904C2.00163 7.69857 3.13892 6.00305 4.54916 4.58248C6.0049 3.11609 7.68809 2.01629 9.64423 1.19145C11.6004 0.412424 13.693 0 16.0131 0H25.3843C27.6589 0 29.797 0.412424 31.7077 1.19145C33.6638 2.01629 35.347 3.11609 36.8027 4.58248C38.213 6.00305 39.3048 7.69857 40.1236 9.66904C40.9425 11.6395 41.3064 13.7933 41.3064 16.1303Z" fill="white"/>
<path d="M39.5322 45H29.4785L23.7011 40.28L22.9277 39.5927C23.6556 39.5927 28.7962 39.5468 31.4347 38.4929L32.117 39.0428L39.5322 45Z" fill="white"/>
<rect x="12.2339" y="12.1429" width="17.0182" height="15" rx="6" fill="white"/>
</g>
<path d="M148 32.9174H143.048V22.968C142.462 23.7786 141.754 24.3816 140.924 24.777C140.103 25.1625 139.2 25.3553 138.213 25.3553C136.924 25.3553 135.771 25.123 134.756 24.6584C133.74 24.1938 132.88 23.5611 132.177 22.7604C131.474 21.9499 130.937 21.0009 130.566 19.9135C130.194 18.8262 130.009 17.6597 130.009 16.4142C130.009 15.1687 130.194 14.0022 130.566 12.9149C130.937 11.8275 131.474 10.8835 132.177 10.0828C132.88 9.27223 133.74 8.63464 134.756 8.17004C135.771 7.70544 136.924 7.47314 138.213 7.47314C138.868 7.47314 139.488 7.572 140.074 7.7697C140.67 7.9674 141.212 8.24912 141.7 8.61487C142.198 8.97074 142.633 9.40568 143.004 9.9197C143.385 10.4238 143.683 10.9873 143.898 11.6101L146.095 7.88832H148V32.9174ZM143.019 16.4142C143.019 15.9694 142.994 15.4998 142.945 15.0056C142.906 14.5113 142.833 14.022 142.726 13.5376C142.618 13.0533 142.467 12.5936 142.272 12.1587C142.086 11.7138 141.842 11.3234 141.539 10.9873C141.246 10.6413 140.889 10.3695 140.469 10.1718C140.05 9.97407 139.561 9.87522 139.004 9.87522C138.448 9.87522 137.964 9.97901 137.554 10.1866C137.144 10.3843 136.792 10.6561 136.499 11.0021C136.206 11.3382 135.962 11.7287 135.767 12.1735C135.581 12.6183 135.434 13.0829 135.327 13.5673C135.22 14.0517 135.141 14.541 135.093 15.0352C135.054 15.5196 135.034 15.9793 135.034 16.4142C135.034 16.8492 135.054 17.3138 135.093 17.808C135.141 18.3023 135.22 18.7916 135.327 19.2759C135.434 19.7603 135.581 20.2249 135.767 20.6697C135.962 21.1146 136.206 21.51 136.499 21.856C136.792 22.192 137.144 22.4639 137.554 22.6715C137.964 22.8692 138.448 22.968 139.004 22.968C139.512 22.968 139.962 22.8642 140.352 22.6566C140.753 22.4392 141.099 22.1525 141.392 21.7966C141.695 21.4408 141.949 21.0355 142.154 20.5808C142.359 20.1261 142.525 19.6565 142.652 19.1721C142.779 18.6878 142.872 18.2084 142.931 17.7339C142.989 17.2495 143.019 16.8096 143.019 16.4142Z" fill="white"/>
<path d="M126.72 3.75148C126.72 4.12711 126.647 4.48297 126.5 4.81907C126.364 5.15516 126.173 5.44677 125.929 5.6939C125.685 5.94103 125.397 6.13873 125.065 6.287C124.732 6.4254 124.381 6.49459 124.01 6.49459C123.639 6.49459 123.287 6.4254 122.955 6.287C122.633 6.13873 122.349 5.94103 122.105 5.6939C121.861 5.44677 121.666 5.15516 121.519 4.81907C121.382 4.48297 121.314 4.12711 121.314 3.75148C121.314 3.37584 121.382 3.02492 121.519 2.69872C121.666 2.36262 121.861 2.07101 122.105 1.82389C122.349 1.57676 122.633 1.384 122.955 1.24561C123.287 1.09733 123.639 1.02319 124.01 1.02319C124.381 1.02319 124.732 1.09733 125.065 1.24561C125.397 1.384 125.685 1.57676 125.929 1.82389C126.173 2.07101 126.364 2.36262 126.5 2.69872C126.647 3.02492 126.72 3.37584 126.72 3.75148ZM126.5 25.0143H121.534V7.90322H126.5V25.0143Z" fill="white"/>
<path d="M112.458 25.0143H108.004L101.851 7.88837H106.803L111.315 21.5298L115.696 7.88837H119.124L112.458 25.0143Z" fill="white"/>
<path d="M88.16 16.8887C88.7656 17.0271 89.3711 17.1358 89.9767 17.2149C90.5823 17.294 91.1927 17.3335 91.8081 17.3335C92.4527 17.3335 93.0485 17.2742 93.5955 17.1556C94.1522 17.0271 94.6308 16.8195 95.0312 16.5328C95.4415 16.2363 95.7638 15.8458 95.9982 15.3614C96.2326 14.8771 96.3498 14.2741 96.3498 13.5525C96.3498 12.9693 96.2717 12.4355 96.1154 11.9511C95.9591 11.4667 95.7247 11.0515 95.4122 10.7056C95.1094 10.3596 94.7333 10.0927 94.2841 9.90488C93.8348 9.70717 93.3122 9.60832 92.7164 9.60832C92.1597 9.60832 91.6567 9.71212 91.2074 9.9197C90.7679 10.1273 90.3772 10.409 90.0353 10.7649C89.7032 11.1109 89.4151 11.5161 89.1709 11.9807C88.9365 12.4453 88.7412 12.9297 88.5849 13.4339C88.4286 13.938 88.3163 14.4471 88.2479 14.9611C88.1795 15.4751 88.1454 15.9595 88.1454 16.4142C88.1454 16.4933 88.1454 16.5724 88.1454 16.6515C88.1454 16.7305 88.1502 16.8096 88.16 16.8887ZM100.364 13.508C100.364 14.2098 100.252 14.8375 100.027 15.3911C99.8025 15.9348 99.4949 16.4142 99.1042 16.8294C98.7233 17.2446 98.2788 17.5955 97.771 17.8821C97.2631 18.1688 96.721 18.4061 96.1447 18.5939C95.5684 18.7718 94.9726 18.9003 94.3573 18.9794C93.7517 19.0585 93.1608 19.098 92.5846 19.098C91.852 19.098 91.1292 19.0486 90.4162 18.9497C89.7032 18.841 89 18.673 88.3065 18.4456C88.414 19.098 88.5849 19.7208 88.8193 20.3139C89.0537 20.8971 89.3663 21.4111 89.7569 21.856C90.1476 22.2909 90.6262 22.6369 91.1927 22.8939C91.769 23.1509 92.4478 23.2794 93.2292 23.2794C93.7469 23.2794 94.2401 23.2003 94.7089 23.0422C95.1778 22.884 95.6075 22.6616 95.9982 22.3749C96.3889 22.0883 96.7307 21.7472 97.0238 21.3518C97.3265 20.9564 97.5707 20.5165 97.7563 20.0322L99.8953 20.8328C99.573 21.6138 99.1286 22.2909 98.5621 22.8642C98.0054 23.4277 97.3705 23.8972 96.6575 24.2729C95.9542 24.6386 95.2022 24.9104 94.4013 25.0884C93.6101 25.2663 92.8239 25.3553 92.0425 25.3553C90.7532 25.3553 89.5616 25.1378 88.4677 24.7029C87.3737 24.258 86.4312 23.6402 85.6401 22.8494C84.8489 22.0586 84.2287 21.1146 83.7794 20.0173C83.3301 18.9201 83.1055 17.719 83.1055 16.4142C83.1055 15.1094 83.3301 13.9083 83.7794 12.8111C84.2287 11.7138 84.8489 10.7698 85.6401 9.97901C86.4312 9.18821 87.3737 8.57533 88.4677 8.14039C89.5616 7.69556 90.7532 7.47314 92.0425 7.47314C92.6676 7.47314 93.3073 7.51763 93.9617 7.60659C94.6161 7.69556 95.251 7.83889 95.8663 8.03659C96.4817 8.22441 97.0628 8.47154 97.6098 8.77798C98.1568 9.08441 98.6305 9.46499 99.0309 9.9197C99.4411 10.3645 99.7635 10.8835 99.9979 11.4766C100.242 12.0697 100.364 12.7468 100.364 13.508Z" fill="white"/>
<path d="M79.6551 25.0142H74.7031V0H76.6077L79.6551 5.2045V25.0142Z" fill="white"/>
<path d="M70.4915 30.7081L66.4166 32.9676H65.0916C64.7344 32.9676 64.7344 32.9676 64.121 32.9676C63.816 32.6678 63.5124 32.3496 63.21 32.013C62.6337 31.3704 62.0868 30.6884 61.5691 29.9667C61.0514 29.2451 60.5777 28.4988 60.148 27.7278C59.7182 26.9567 59.3617 26.1906 59.0785 25.4295C57.5059 25.3603 56.0506 25.0588 54.7125 24.525C53.3744 23.9813 52.217 23.2301 51.2403 22.2712C50.2733 21.3124 49.5115 20.1657 48.9547 18.8312C48.4078 17.4868 48.1343 15.9793 48.1343 14.3088C48.1343 12.5591 48.4224 10.9973 48.9987 9.62323C49.5847 8.23932 50.3905 7.07288 51.4161 6.12391C52.4514 5.16506 53.6772 4.43356 55.0934 3.92942C56.5097 3.4154 58.0529 3.15839 59.7231 3.15839C61.3933 3.15839 62.9365 3.4154 64.3528 3.92942C65.769 4.43356 66.9899 5.16506 68.0155 6.12391C69.0508 7.07288 69.8566 8.23932 70.4329 9.62323C71.0189 10.9973 71.3119 12.5591 71.3119 14.3088C71.3119 15.7816 71.097 17.126 70.6673 18.3419C70.2375 19.5577 69.6319 20.6303 68.8506 21.5595C68.079 22.4887 67.1559 23.2597 66.0816 23.8726C65.0072 24.4855 63.8253 24.9204 62.5361 25.1774C63.083 25.7606 63.6788 26.3241 64.3235 26.8678C64.9681 27.4115 65.6323 27.9205 66.316 28.395C67.0094 28.8695 67.7078 29.2995 68.411 29.685C69.124 30.0804 69.8175 30.4215 70.4915 30.7081ZM65.393 14.3088C65.393 13.6564 65.3637 12.9891 65.3051 12.307C65.2465 11.625 65.139 10.9627 64.9827 10.3201C64.8265 9.6776 64.6116 9.07461 64.3381 8.51116C64.0744 7.94771 63.7325 7.4584 63.3125 7.04323C62.8926 6.61817 62.3847 6.28702 61.7889 6.04977C61.2028 5.80265 60.5142 5.67908 59.7231 5.67908C58.9222 5.67908 58.2238 5.80265 57.628 6.04977C57.0322 6.28702 56.5243 6.61322 56.1043 7.0284C55.6843 7.44357 55.3425 7.93288 55.0788 8.49633C54.8151 9.05978 54.6051 9.66277 54.4488 10.3053C54.3023 10.938 54.1997 11.6003 54.1411 12.2922C54.0825 12.9743 54.0532 13.6465 54.0532 14.3088C54.0532 14.9612 54.0825 15.6284 54.1411 16.3105C54.1997 16.9926 54.3072 17.6549 54.4634 18.2974C54.6197 18.93 54.8297 19.5281 55.0934 20.0915C55.3669 20.655 55.7136 21.1492 56.1336 21.5743C56.5536 21.9895 57.0566 22.3206 57.6427 22.5678C58.2385 22.8149 58.9319 22.9384 59.7231 22.9384C60.4947 22.9384 61.1686 22.8149 61.7449 22.5678C62.3212 22.3107 62.8193 21.9697 63.2393 21.5447C63.6593 21.1097 64.006 20.6105 64.2795 20.0471C64.5628 19.4737 64.7825 18.8707 64.9388 18.2381C65.1048 17.5956 65.222 16.9382 65.2904 16.266C65.3588 15.5938 65.393 14.9414 65.393 14.3088Z" fill="white"/>
<g opacity="0.5">
<path d="M143.755 44.8768C143.603 44.8768 143.467 44.864 143.348 44.8383C143.228 44.8152 143.146 44.7921 143.1 44.769L143.329 43.9679C143.547 44.0244 143.74 44.0449 143.907 44.0295C144.074 44.0141 144.223 43.9384 144.352 43.8023C144.484 43.6688 144.605 43.4518 144.714 43.1514L144.881 42.6893L142.72 36.7428H143.694L145.307 41.4568H145.368L146.982 36.7428H147.956L145.475 43.5211C145.363 43.8267 145.225 44.0796 145.06 44.2799C144.895 44.4827 144.704 44.6329 144.485 44.7305C144.27 44.828 144.026 44.8768 143.755 44.8768Z" fill="white"/>
<path d="M139.351 42.7816C138.803 42.7816 138.331 42.6507 137.935 42.3888C137.539 42.1269 137.235 41.7662 137.022 41.3066C136.809 40.847 136.702 40.3219 136.702 39.7314C136.702 39.1306 136.811 38.6004 137.029 38.1408C137.25 37.6786 137.557 37.3179 137.95 37.0585C138.346 36.7967 138.808 36.6657 139.335 36.6657C139.746 36.6657 140.117 36.7427 140.447 36.8968C140.776 37.0508 141.047 37.2665 141.257 37.5438C141.468 37.8211 141.598 38.1446 141.649 38.5144H140.751C140.683 38.2448 140.53 38.006 140.294 37.798C140.061 37.5875 139.746 37.4822 139.351 37.4822C139.001 37.4822 138.694 37.5746 138.43 37.7595C138.169 37.9418 137.964 38.1998 137.817 38.5336C137.673 38.8648 137.6 39.2538 137.6 39.7006C137.6 40.1576 137.671 40.5556 137.813 40.8945C137.958 41.2334 138.161 41.4966 138.422 41.684C138.686 41.8714 138.996 41.9651 139.351 41.9651C139.584 41.9651 139.796 41.9241 139.986 41.8419C140.176 41.7597 140.338 41.6416 140.47 41.4876C140.601 41.3335 140.695 41.1487 140.751 40.933H141.649C141.598 41.2822 141.473 41.5967 141.272 41.8766C141.075 42.1539 140.812 42.3747 140.485 42.539C140.16 42.7007 139.782 42.7816 139.351 42.7816Z" fill="white"/>
<path d="M131.391 39.0998V42.6584H130.493V36.7427H131.361V37.6671H131.437C131.574 37.3667 131.782 37.1253 132.061 36.943C132.34 36.7581 132.7 36.6657 133.142 36.6657C133.537 36.6657 133.884 36.7479 134.181 36.9122C134.477 37.074 134.708 37.3204 134.873 37.6517C135.038 37.9803 135.121 38.3962 135.121 38.8995V42.6584H134.222V38.9611C134.222 38.4964 134.103 38.1344 133.865 37.875C133.626 37.6131 133.299 37.4822 132.883 37.4822C132.596 37.4822 132.34 37.5451 132.114 37.6709C131.891 37.7967 131.715 37.9803 131.585 38.2216C131.456 38.463 131.391 38.7557 131.391 39.0998Z" fill="white"/>
<path d="M126.493 42.7816C125.93 42.7816 125.444 42.6558 125.036 42.4042C124.63 42.15 124.317 41.7957 124.096 41.3412C123.878 40.8842 123.769 40.3527 123.769 39.7468C123.769 39.1408 123.878 38.6068 124.096 38.1446C124.317 37.6799 124.624 37.3179 125.017 37.0585C125.412 36.7967 125.874 36.6657 126.402 36.6657C126.706 36.6657 127.007 36.7171 127.304 36.8198C127.601 36.9225 127.871 37.0894 128.114 37.3204C128.358 37.5489 128.552 37.8519 128.697 38.2294C128.841 38.6068 128.913 39.0715 128.913 39.6235V40.0087H124.408V39.223H128C128 38.8892 127.934 38.5914 127.802 38.3295C127.673 38.0676 127.488 37.8609 127.247 37.7094C127.008 37.5579 126.727 37.4822 126.402 37.4822C126.044 37.4822 125.735 37.5721 125.473 37.7518C125.215 37.9289 125.015 38.16 124.876 38.445C124.736 38.73 124.667 39.0356 124.667 39.3616V39.8854C124.667 40.3322 124.743 40.7109 124.895 41.0216C125.05 41.3297 125.264 41.5646 125.538 41.7264C125.812 41.8856 126.13 41.9651 126.493 41.9651C126.729 41.9651 126.942 41.9318 127.133 41.865C127.325 41.7957 127.492 41.693 127.631 41.5569C127.771 41.4183 127.878 41.2462 127.955 41.0408L128.822 41.2873C128.731 41.5851 128.577 41.847 128.362 42.073C128.146 42.2964 127.88 42.471 127.563 42.5968C127.245 42.72 126.889 42.7816 126.493 42.7816Z" fill="white"/>
<path d="M119.657 45C119.223 45 118.85 44.9435 118.538 44.8305C118.226 44.7201 117.966 44.5738 117.758 44.3915C117.552 44.2118 117.389 44.0192 117.267 43.8138L117.982 43.3054C118.064 43.4132 118.166 43.5365 118.291 43.6751C118.415 43.8164 118.585 43.9383 118.801 44.041C119.019 44.1463 119.304 44.1989 119.657 44.1989C120.129 44.1989 120.518 44.0834 120.825 43.8523C121.132 43.6212 121.286 43.2592 121.286 42.7662V41.5646H121.209C121.143 41.6724 121.05 41.806 120.928 41.9651C120.809 42.1218 120.636 42.2617 120.41 42.3849C120.187 42.5056 119.885 42.566 119.505 42.566C119.033 42.566 118.609 42.453 118.234 42.227C117.861 42.0011 117.565 41.6724 117.347 41.2411C117.131 40.8097 117.023 40.286 117.023 39.6698C117.023 39.0638 117.129 38.5362 117.339 38.0869C117.55 37.635 117.843 37.2858 118.218 37.0393C118.594 36.7902 119.028 36.6657 119.52 36.6657C119.9 36.6657 120.202 36.7299 120.425 36.8583C120.651 36.9841 120.824 37.1279 120.943 37.2896C121.065 37.4488 121.159 37.5798 121.225 37.6825H121.316V36.7427H122.184V42.8278C122.184 43.3362 122.069 43.7496 121.841 44.068C121.615 44.3889 121.311 44.6238 120.928 44.7728C120.547 44.9243 120.124 45 119.657 45ZM119.626 41.7495C119.987 41.7495 120.291 41.666 120.54 41.4991C120.788 41.3322 120.977 41.0922 121.107 40.7789C121.236 40.4657 121.301 40.0908 121.301 39.6543C121.301 39.2281 121.237 38.852 121.11 38.5259C120.984 38.1998 120.796 37.9444 120.547 37.7595C120.299 37.5746 119.992 37.4822 119.626 37.4822C119.246 37.4822 118.929 37.5798 118.675 37.7749C118.424 37.97 118.235 38.2319 118.108 38.5606C117.984 38.8892 117.922 39.2538 117.922 39.6543C117.922 40.0652 117.985 40.4285 118.112 40.7443C118.241 41.0575 118.431 41.304 118.683 41.4837C118.936 41.6609 119.251 41.7495 119.626 41.7495Z" fill="white"/>
<path d="M110.283 42.6581H109.294L112.156 34.7706H113.13L115.991 42.6581H115.002L112.673 36.0184H112.612L110.283 42.6581ZM110.649 39.577H114.637V40.4243H110.649V39.577Z" fill="white"/>
<path d="M102.613 42.7816C102.05 42.7816 101.564 42.6558 101.155 42.4042C100.749 42.15 100.436 41.7957 100.215 41.3412C99.9973 40.8842 99.8882 40.3527 99.8882 39.7468C99.8882 39.1408 99.9973 38.6068 100.215 38.1446C100.436 37.6799 100.743 37.3179 101.136 37.0585C101.532 36.7967 101.994 36.6657 102.522 36.6657C102.826 36.6657 103.127 36.7171 103.423 36.8198C103.72 36.9225 103.99 37.0894 104.234 37.3204C104.478 37.5489 104.672 37.8519 104.816 38.2294C104.961 38.6068 105.033 39.0715 105.033 39.6235V40.0087H100.527V39.223H104.12C104.12 38.8892 104.054 38.5914 103.922 38.3295C103.793 38.0676 103.607 37.8609 103.366 37.7094C103.128 37.5579 102.846 37.4822 102.522 37.4822C102.164 37.4822 101.854 37.5721 101.593 37.7518C101.334 37.9289 101.135 38.16 100.996 38.445C100.856 38.73 100.786 39.0356 100.786 39.3616V39.8854C100.786 40.3322 100.862 40.7109 101.015 41.0216C101.169 41.3297 101.384 41.5646 101.658 41.7264C101.932 41.8856 102.25 41.9651 102.613 41.9651C102.849 41.9651 103.062 41.9318 103.252 41.865C103.445 41.7957 103.611 41.693 103.751 41.5569C103.89 41.4183 103.998 41.2462 104.074 41.0408L104.942 41.2873C104.85 41.5851 104.697 41.847 104.481 42.073C104.266 42.2964 103.999 42.471 103.682 42.5968C103.365 42.72 103.009 42.7816 102.613 42.7816Z" fill="white"/>
<path d="M98.6595 36.7428V37.5131H95.6304V36.7428H98.6595ZM96.5132 35.3255H97.4113V40.9639C97.4113 41.2206 97.4481 41.4132 97.5217 41.5416C97.5978 41.6674 97.6942 41.7521 97.8109 41.7957C97.9301 41.8368 98.0557 41.8574 98.1876 41.8574C98.2865 41.8574 98.3677 41.8522 98.4312 41.842C98.4946 41.8291 98.5453 41.8188 98.5834 41.8111L98.766 42.6276C98.7051 42.6507 98.6202 42.6738 98.5111 42.697C98.402 42.7226 98.2637 42.7355 98.0963 42.7355C97.8426 42.7355 97.594 42.6803 97.3504 42.5699C97.1094 42.4595 96.909 42.2913 96.7492 42.0653C96.5919 41.8394 96.5132 41.5544 96.5132 41.2103V35.3255Z" fill="white"/>
<path d="M91.5849 42.797C91.2145 42.797 90.8783 42.7264 90.5764 42.5852C90.2745 42.4414 90.0348 42.2347 89.8572 41.9651C89.6796 41.693 89.5908 41.3643 89.5908 40.9792C89.5908 40.6403 89.6568 40.3656 89.7887 40.155C89.9206 39.9419 90.0969 39.775 90.3177 39.6543C90.5384 39.5337 90.7819 39.4438 91.0483 39.3848C91.3172 39.3231 91.5874 39.2743 91.8588 39.2384C92.214 39.1922 92.502 39.1575 92.7227 39.1344C92.9459 39.1087 93.1083 39.0664 93.2098 39.0073C93.3138 38.9483 93.3658 38.8456 93.3658 38.6992V38.6684C93.3658 38.2884 93.263 37.9931 93.0576 37.7826C92.8546 37.5721 92.5464 37.4668 92.1328 37.4668C91.7041 37.4668 91.3679 37.5618 91.1244 37.7518C90.8809 37.9418 90.7096 38.1446 90.6107 38.3603L89.7583 38.0522C89.9105 37.6927 90.1134 37.4129 90.3671 37.2126C90.6234 37.0098 90.9024 36.8685 91.2043 36.789C91.5088 36.7068 91.8081 36.6657 92.1024 36.6657C92.2901 36.6657 92.5058 36.6888 92.7493 36.735C92.9954 36.7787 93.2326 36.8698 93.4609 37.0085C93.6918 37.1471 93.8833 37.3564 94.0355 37.6362C94.1878 37.9161 94.2639 38.291 94.2639 38.7608V42.6584H93.3658V41.8573H93.3201C93.2592 41.9857 93.1578 42.123 93.0157 42.2694C92.8736 42.4158 92.6846 42.5403 92.4487 42.643C92.2128 42.7457 91.9248 42.797 91.5849 42.797ZM91.7219 41.9805C92.077 41.9805 92.3764 41.9099 92.6199 41.7687C92.866 41.6275 93.0512 41.4452 93.1755 41.2218C93.3024 40.9985 93.3658 40.7635 93.3658 40.517V39.6852C93.3277 39.7314 93.244 39.7737 93.1146 39.8122C92.9878 39.8482 92.8406 39.8803 92.6732 39.9085C92.5083 39.9342 92.3472 39.9573 92.1899 39.9779C92.0352 39.9958 91.9096 40.0112 91.8132 40.0241C91.5798 40.0549 91.3616 40.105 91.1587 40.1743C90.9582 40.241 90.7959 40.3424 90.6716 40.4785C90.5498 40.612 90.4889 40.7943 90.4889 41.0254C90.4889 41.3412 90.6043 41.58 90.8352 41.7418C91.0686 41.901 91.3641 41.9805 91.7219 41.9805Z" fill="white"/>
<path d="M85.6636 42.6584V36.7428H86.5312V37.6363H86.5921C86.6986 37.3436 86.8915 37.1061 87.1705 36.9238C87.4496 36.7415 87.7642 36.6503 88.1143 36.6503C88.1802 36.6503 88.2627 36.6516 88.3616 36.6542C88.4606 36.6567 88.5354 36.6606 88.5861 36.6657V37.5901C88.5557 37.5824 88.4859 37.5708 88.3768 37.5554C88.2703 37.5374 88.1574 37.5284 88.0382 37.5284C87.754 37.5284 87.5003 37.5888 87.2771 37.7094C87.0564 37.8276 86.8813 37.9919 86.7519 38.2024C86.6251 38.4104 86.5616 38.6479 86.5616 38.9149V42.6584H85.6636Z" fill="white"/>
<path d="M81.4298 42.7816C80.9021 42.7816 80.4391 42.6545 80.0408 42.4003C79.6451 42.1462 79.3356 41.7906 79.1123 41.3335C78.8916 40.8765 78.7812 40.3425 78.7812 39.7314C78.7812 39.1152 78.8916 38.5773 79.1123 38.1177C79.3356 37.6581 79.6451 37.3012 80.0408 37.047C80.4391 36.7928 80.9021 36.6657 81.4298 36.6657C81.9575 36.6657 82.4192 36.7928 82.815 37.047C83.2133 37.3012 83.5228 37.6581 83.7435 38.1177C83.9668 38.5773 84.0784 39.1152 84.0784 39.7314C84.0784 40.3425 83.9668 40.8765 83.7435 41.3335C83.5228 41.7906 83.2133 42.1462 82.815 42.4003C82.4192 42.6545 81.9575 42.7816 81.4298 42.7816ZM81.4298 41.9651C81.8307 41.9651 82.1605 41.8612 82.4192 41.6532C82.678 41.4452 82.8695 41.1718 82.9938 40.8329C83.1182 40.4939 83.1803 40.1268 83.1803 39.7314C83.1803 39.336 83.1182 38.9675 82.9938 38.626C82.8695 38.2846 82.678 38.0085 82.4192 37.798C82.1605 37.5875 81.8307 37.4822 81.4298 37.4822C81.029 37.4822 80.6992 37.5875 80.4404 37.798C80.1816 38.0085 79.9901 38.2846 79.8658 38.626C79.7415 38.9675 79.6793 39.336 79.6793 39.7314C79.6793 40.1268 79.7415 40.4939 79.8658 40.8329C79.9901 41.1718 80.1816 41.4452 80.4404 41.6532C80.6992 41.8612 81.029 41.9651 81.4298 41.9651Z" fill="white"/>
<path d="M72.3105 44.8768V36.7427H73.1782V37.6825H73.2847C73.3507 37.5798 73.442 37.4488 73.5587 37.2896C73.678 37.1279 73.8479 36.9841 74.0686 36.8583C74.2919 36.7299 74.5938 36.6657 74.9743 36.6657C75.4665 36.6657 75.9003 36.7902 76.2758 37.0393C76.6513 37.2883 76.9443 37.6414 77.1548 38.0984C77.3654 38.5554 77.4707 39.0946 77.4707 39.716C77.4707 40.3424 77.3654 40.8855 77.1548 41.3451C76.9443 41.8021 76.6525 42.1564 76.2796 42.408C75.9067 42.6571 75.4767 42.7816 74.9896 42.7816C74.6141 42.7816 74.3135 42.7187 74.0877 42.5929C73.8619 42.4645 73.6881 42.3195 73.5663 42.1577C73.4446 41.9934 73.3507 41.8573 73.2847 41.7495H73.2086V44.8768H72.3105ZM73.1934 39.7006C73.1934 40.1473 73.2581 40.5414 73.3875 40.8829C73.5169 41.2218 73.7059 41.4876 73.9545 41.6801C74.2031 41.8701 74.5075 41.9651 74.8678 41.9651C75.2433 41.9651 75.5566 41.865 75.8077 41.6647C76.0614 41.4619 76.2517 41.1897 76.3785 40.8483C76.5079 40.5042 76.5726 40.1216 76.5726 39.7006C76.5726 39.2846 76.5092 38.9098 76.3823 38.576C76.258 38.2396 76.069 37.9739 75.8153 37.7787C75.5642 37.581 75.2483 37.4822 74.8678 37.4822C74.5025 37.4822 74.1955 37.5759 73.9469 37.7633C73.6983 37.9482 73.5105 38.2075 73.3837 38.5413C73.2568 38.8725 73.1934 39.2589 73.1934 39.7006Z" fill="white"/>
<path d="M68.1094 42.6584V36.7428H68.977V37.6363H69.0379C69.1444 37.3436 69.3373 37.1061 69.6163 36.9238C69.8954 36.7415 70.21 36.6503 70.5601 36.6503C70.626 36.6503 70.7085 36.6516 70.8074 36.6542C70.9064 36.6567 70.9812 36.6606 71.0319 36.6657V37.5901C71.0015 37.5824 70.9317 37.5708 70.8226 37.5554C70.7161 37.5374 70.6032 37.5284 70.484 37.5284C70.1998 37.5284 69.9461 37.5888 69.7229 37.7094C69.5022 37.8276 69.3271 37.9919 69.1977 38.2024C69.0709 38.4104 69.0075 38.6479 69.0075 38.9149V42.6584H68.1094Z" fill="white"/>
<path d="M63.8756 42.7816C63.3479 42.7816 62.8849 42.6545 62.4866 42.4003C62.0909 42.1462 61.7814 41.7906 61.5581 41.3335C61.3374 40.8765 61.2271 40.3425 61.2271 39.7314C61.2271 39.1152 61.3374 38.5773 61.5581 38.1177C61.7814 37.6581 62.0909 37.3012 62.4866 37.047C62.8849 36.7928 63.3479 36.6657 63.8756 36.6657C64.4033 36.6657 64.865 36.7928 65.2608 37.047C65.6591 37.3012 65.9686 37.6581 66.1893 38.1177C66.4126 38.5773 66.5242 39.1152 66.5242 39.7314C66.5242 40.3425 66.4126 40.8765 66.1893 41.3335C65.9686 41.7906 65.6591 42.1462 65.2608 42.4003C64.865 42.6545 64.4033 42.7816 63.8756 42.7816ZM63.8756 41.9651C64.2765 41.9651 64.6063 41.8612 64.865 41.6532C65.1238 41.4452 65.3153 41.1718 65.4396 40.8329C65.564 40.4939 65.6261 40.1268 65.6261 39.7314C65.6261 39.336 65.564 38.9675 65.4396 38.626C65.3153 38.2846 65.1238 38.0085 64.865 37.798C64.6063 37.5875 64.2765 37.4822 63.8756 37.4822C63.4748 37.4822 63.145 37.5875 62.8862 37.798C62.6274 38.0085 62.4359 38.2846 62.3116 38.626C62.1873 38.9675 62.1251 39.336 62.1251 39.7314C62.1251 40.1268 62.1873 40.4939 62.3116 40.8329C62.4359 41.1718 62.6274 41.4452 62.8862 41.6532C63.145 41.8612 63.4748 41.9651 63.8756 41.9651Z" fill="white"/>
<path d="M59.8834 37.2358H58.9396C58.8838 36.961 58.7861 36.7197 58.6466 36.5117C58.5096 36.3038 58.3422 36.1292 58.1443 35.9879C57.949 35.8442 57.732 35.7363 57.4936 35.6644C57.2551 35.5925 57.0065 35.5566 56.7477 35.5566C56.2758 35.5566 55.8484 35.6773 55.4653 35.9186C55.0847 36.16 54.7816 36.5156 54.5558 36.9854C54.3325 37.4553 54.2209 38.0317 54.2209 38.7147C54.2209 39.3977 54.3325 39.9741 54.5558 40.4439C54.7816 40.9138 55.0847 41.2694 55.4653 41.5108C55.8484 41.7521 56.2758 41.8728 56.7477 41.8728C57.0065 41.8728 57.2551 41.8368 57.4936 41.7649C57.732 41.6931 57.949 41.5865 58.1443 41.4453C58.3422 41.3015 58.5096 41.1256 58.6466 40.9177C58.7861 40.7071 58.8838 40.4658 58.9396 40.1936H59.8834C59.8123 40.5967 59.683 40.9574 59.4952 41.2758C59.3075 41.5942 59.0741 41.8651 58.795 42.0885C58.516 42.3093 58.2026 42.4774 57.8551 42.593C57.5101 42.7085 57.1409 42.7663 56.7477 42.7663C56.083 42.7663 55.4919 42.602 54.9744 42.2733C54.4569 41.9447 54.0497 41.4774 53.7529 40.8714C53.456 40.2655 53.3076 39.5466 53.3076 38.7147C53.3076 37.8828 53.456 37.1639 53.7529 36.5579C54.0497 35.952 54.4569 35.4847 54.9744 35.1561C55.4919 34.8274 56.083 34.6631 56.7477 34.6631C57.1409 34.6631 57.5101 34.7209 57.8551 34.8364C58.2026 34.9519 58.516 35.1214 58.795 35.3448C59.0741 35.5656 59.3075 35.8352 59.4952 36.1536C59.683 36.4694 59.8123 36.8301 59.8834 37.2358Z" fill="white"/>
</g>
<defs>
<clipPath id="clip0_1996_47195">
<rect width="41.3064" height="45" fill="white"/>
</clipPath>
</defs>
</svg>
