<svg width="65" height="65" viewBox="0 0 65 65" fill="none" xmlns="http://www.w3.org/2000/svg">
<mask id="mask0_1996_48713" style="mask-type:alpha" maskUnits="userSpaceOnUse" x="0" y="0" width="65" height="65">
<rect width="65" height="65" fill="#D9D9D9"/>
</mask>
<g mask="url(#mask0_1996_48713)">
<g clip-path="url(#clip0_1996_48713)">
<path fill-rule="evenodd" clip-rule="evenodd" d="M16.4237 11.0054C13.2854 11.0054 10.9633 13.7515 11.0673 16.7296C11.1671 19.5907 11.0374 23.2963 10.1044 26.3183C9.16797 29.3487 7.58543 31.269 5 31.5155V34.2983C7.58543 34.5453 9.16797 36.4647 10.1043 39.4956C11.0374 42.5175 11.167 46.2231 11.0672 49.0842C10.9632 52.0619 13.2853 54.8085 16.4241 54.8085H48.5805C51.7187 54.8085 54.0404 52.0623 53.9365 49.0842C53.8367 46.2231 53.9663 42.5175 54.8994 39.4956C55.8358 36.4647 57.4145 34.5446 60 34.2983V31.5155C57.4146 31.2685 55.8359 29.3491 54.8994 26.3183C53.9662 23.2968 53.8367 19.5907 53.9365 16.7296C54.0404 13.7519 51.7187 11.0054 48.5805 11.0054H16.4232H16.4237ZM42.2882 37.969C42.2882 42.0697 39.2287 44.5567 34.1514 44.5567H25.5084C25.2612 44.5567 25.0241 44.4585 24.8493 44.2838C24.6745 44.109 24.5762 43.8719 24.5762 43.6247V22.1892C24.5762 21.942 24.6745 21.705 24.8493 21.5302C25.0241 21.3554 25.2612 21.2572 25.5084 21.2572H34.1022C38.3358 21.2572 41.1143 23.5499 41.1143 27.0699C41.1143 29.5406 39.2451 31.7524 36.8639 32.1399V32.2688C40.1055 32.6242 42.2882 34.8688 42.2882 37.969ZM33.209 24.2116H28.2809V31.1709H32.4316C35.6403 31.1709 37.4095 29.8791 37.4095 27.5702C37.4092 25.4064 35.8881 24.2116 33.209 24.2116ZM28.2809 33.9321V41.6014H33.3903C36.7311 41.6014 38.5007 40.2612 38.5007 37.7425C38.5007 35.2239 36.6815 33.9317 33.1755 33.9317H28.2809V33.9321Z" fill="#7952B3"/>
</g>
</g>
<defs>
<clipPath id="clip0_1996_48713">
<rect width="55" height="43.8136" fill="white" transform="translate(5 11)"/>
</clipPath>
</defs>
</svg>
