<svg width="65" height="65" viewBox="0 0 65 65" fill="none" xmlns="http://www.w3.org/2000/svg">
<mask id="mask0_1996_48727" style="mask-type:alpha" maskUnits="userSpaceOnUse" x="0" y="0" width="65" height="65">
<rect width="65" height="65" fill="#D9D9D9"/>
</mask>
<g mask="url(#mask0_1996_48727)">
<path d="M12.9171 46.2313L10.9893 45.1211L32.4651 8.02002L34.3929 9.13019L12.9171 46.2313Z" fill="#E535AB"/>
<path d="M10.5479 42.1572H53.4995V44.3776H10.5479V42.1572Z" fill="#E535AB"/>
<path d="M32.8818 55.7768L11.3979 43.4044L12.511 41.4815L33.9948 53.8539L32.8818 55.7768ZM51.5448 23.5311L30.0609 11.1587L31.1739 9.23584L52.6578 21.6082L51.5448 23.5311Z" fill="#E535AB"/>
<path d="M12.5168 23.5227L11.4038 21.5999L32.8877 9.22754L34.0007 11.1503L12.5168 23.5227Z" fill="#E535AB"/>
<path d="M51.1485 46.2318L29.6727 9.13068L31.6005 8.02051L53.0763 45.1216L51.1485 46.2318ZM12.251 20.1277H14.477V44.8724H12.251V20.1277Z" fill="#E535AB"/>
<path d="M49.584 20.1274H51.81V44.8722H49.584V20.1274Z" fill="#E535AB"/>
<path d="M32.503 54.8373L31.5308 53.1576L50.216 42.397L51.1882 44.0765L32.503 54.8373Z" fill="#E535AB"/>
<path d="M54.7602 45.5946C53.4728 47.8283 50.6031 48.5907 48.3637 47.3066C46.1242 46.0226 45.3599 43.1602 46.6472 40.9265C47.9346 38.6928 50.8043 37.9304 53.0437 39.2144C55.2966 40.5118 56.0609 43.3608 54.7602 45.5946ZM17.4004 24.0733C16.1131 26.307 13.2434 27.0694 11.004 25.7854C8.76452 24.5013 8.00016 21.6389 9.2875 19.4052C10.5748 17.1715 13.4445 16.4091 15.684 17.6931C17.9234 18.9906 18.6878 21.8396 17.4004 24.0733ZM9.30091 45.5946C8.01357 43.3608 8.77793 40.5118 11.0174 39.2144C13.2568 37.9304 16.1131 38.6928 17.4138 40.9265C18.7012 43.1602 17.9368 46.0092 15.6974 47.3066C13.4445 48.5907 10.5883 47.8283 9.30091 45.5946ZM46.6606 24.0733C45.3733 21.8396 46.1377 18.9906 48.3771 17.6931C50.6165 16.4091 53.4728 17.1715 54.7736 19.4052C56.0609 21.6389 55.2966 24.4879 53.0571 25.7854C50.8177 27.0694 47.948 26.307 46.6606 24.0733ZM32.0305 58.6892C29.4424 58.6892 27.3505 56.6026 27.3505 54.0212C27.3505 51.4397 29.4424 49.3531 32.0305 49.3531C34.6186 49.3531 36.7106 51.4397 36.7106 54.0212C36.7106 56.5893 34.6186 58.6892 32.0305 58.6892ZM32.0305 15.6467C29.4424 15.6467 27.3505 13.5601 27.3505 10.9786C27.3505 8.39713 29.4424 6.31055 32.0305 6.31055C34.6186 6.31055 36.7106 8.39713 36.7106 10.9786C36.7106 13.5601 34.6186 15.6467 32.0305 15.6467Z" fill="#E535AB"/>
</g>
</svg>
