<svg width="65" height="65" viewBox="0 0 65 65" fill="none" xmlns="http://www.w3.org/2000/svg">
<mask id="mask0_1996_48720" style="mask-type:alpha" maskUnits="userSpaceOnUse" x="0" y="0" width="65" height="65">
<rect width="65" height="65" fill="#D9D9D9"/>
</mask>
<g mask="url(#mask0_1996_48720)">
<g clip-path="url(#clip0_1996_48720)">
<path d="M32.4999 16C25.1692 16 20.5878 19.6376 18.755 26.9122C21.5042 23.2746 24.7113 21.911 28.3763 22.8201C30.4676 23.3388 31.9622 24.845 33.617 26.5116C36.312 29.2265 39.4311 32.3687 46.2448 32.3687C53.5747 32.3687 58.1568 28.7311 59.989 21.4558C57.2404 25.0934 54.0333 26.4577 50.3676 25.5486C48.277 25.03 46.7824 23.5237 45.1276 21.8571C42.4326 19.1422 39.3128 16 32.4999 16ZM18.755 32.3687C11.425 32.3687 6.84289 36.0063 5.01074 43.2816C7.75931 39.644 10.9664 38.2797 14.6321 39.1895C16.7227 39.7088 18.2173 41.2144 19.8721 42.8803C22.5671 45.5953 25.6869 48.7381 32.4999 48.7381C39.8305 48.7381 44.4119 45.1005 46.2448 37.8252C43.4955 41.4628 40.2884 42.8271 36.6234 41.9173C34.5321 41.3993 33.0375 39.8924 31.3827 38.2265C28.6877 35.5115 25.5686 32.3687 18.755 32.3687Z" fill="#06B6D4"/>
</g>
</g>
<defs>
<clipPath id="clip0_1996_48720">
<rect width="55" height="32.7381" fill="white" transform="translate(5 16)"/>
</clipPath>
</defs>
</svg>
