<svg width="65" height="65" viewBox="0 0 65 65" fill="none" xmlns="http://www.w3.org/2000/svg">
<mask id="mask0_1996_48661" style="mask-type:alpha" maskUnits="userSpaceOnUse" x="0" y="0" width="65" height="65">
<rect width="65" height="65" fill="#D9D9D9"/>
</mask>
<g mask="url(#mask0_1996_48661)">
<g clip-path="url(#clip0_1996_48661)">
<path d="M13.0067 54.2384L9 5.09229L56.85 5.19105L52.6133 54.2384L33.1056 59.9078L13.0067 54.2384Z" fill="#1B73BA"/>
<path d="M33.1055 55.1614V9.77295L52.8104 9.83879L49.2965 50.4479L33.1055 55.1614Z" fill="#1C88C7"/>
<path d="M47.9171 15.5742H17.6045L18.4257 21.507H32.81L18.6556 27.6051L19.4764 33.3404H40.3309L39.5754 41.3498L32.5144 42.7345L26.1106 41.0865L25.6178 36.5376H19.7392L20.5272 45.9979L33.1384 49.5247L45.2244 45.6683L46.7679 27.1764H33.992L47.9167 21.3753L47.9171 15.5742Z" fill="white"/>
</g>
</g>
<defs>
<clipPath id="clip0_1996_48661">
<rect width="47.85" height="55" fill="white" transform="translate(9 5)"/>
</clipPath>
</defs>
</svg>
