<svg width="65" height="65" viewBox="0 0 65 65" fill="none" xmlns="http://www.w3.org/2000/svg">
<mask id="mask0_1996_48679" style="mask-type:alpha" maskUnits="userSpaceOnUse" x="0" y="0" width="65" height="65">
<rect width="65" height="65" fill="#D9D9D9"/>
</mask>
<g mask="url(#mask0_1996_48679)">
<path d="M12.0819 39.4993C12.1289 39.6059 12.182 39.7044 12.2392 39.8028C12.2658 39.8603 12.3025 39.9197 12.3352 39.9731C12.3883 40.0797 12.4455 40.1823 12.5006 40.2848L12.8213 40.8263C12.8805 40.9268 12.9377 41.0252 13.0051 41.1237C13.1174 41.3164 13.2501 41.5051 13.3666 41.6979C13.4197 41.7779 13.4687 41.8579 13.5279 41.9379C13.7526 42.2886 13.9568 42.5798 14.1753 42.8629C14.3305 43.0741 14.4857 43.2813 14.6532 43.4884C14.7084 43.5663 14.7696 43.6443 14.8268 43.7222L15.2782 44.2719C15.3333 44.3355 15.3884 44.4093 15.4477 44.4749C15.6478 44.7169 15.8602 44.9507 16.0726 45.1887C16.0726 45.1928 16.0787 45.1969 16.0828 45.203C16.3463 45.5353 16.6302 45.8306 16.9406 46.0931L16.9488 46.1013C17.1121 46.2695 17.2755 46.4356 17.4491 46.5997L17.6554 46.7987C17.8821 47.012 18.1088 47.2232 18.3477 47.4283C18.3518 47.4283 18.3539 47.4324 18.358 47.4345L18.4744 47.537C18.6827 47.7195 18.893 47.9 19.1075 48.0682L19.3628 48.2836C19.5364 48.423 19.7161 48.5543 19.8938 48.6917L20.1715 48.905C20.3615 49.0486 20.5636 49.188 20.7577 49.3275C20.8291 49.3788 20.9006 49.43 20.9742 49.4772L21.0334 49.5244L21.6073 49.9018L21.8523 50.0658C22.1526 50.2586 22.4507 50.4391 22.7489 50.6196C22.8347 50.6627 22.9205 50.7098 23.0001 50.7591C23.2207 50.8862 23.4494 51.0154 23.672 51.1323C23.7946 51.2021 23.9212 51.2615 24.0478 51.3251C24.201 51.4113 24.3603 51.4954 24.5237 51.5815C24.5686 51.5958 24.6054 51.6102 24.6421 51.6307L24.6503 51.6225C24.7177 51.6533 24.781 51.6861 24.8464 51.7189C25.0914 51.842 25.3467 51.9589 25.6122 52.0737C25.6612 52.0942 25.7143 52.1147 25.7674 52.1435C26.0615 52.2727 26.3556 52.3957 26.6599 52.5147C26.7294 52.5352 26.8029 52.5701 26.8744 52.5967C27.1501 52.7013 27.434 52.808 27.7158 52.9085L27.8179 52.9454C28.1304 53.052 28.4388 53.1546 28.7574 53.251C28.8309 53.2715 28.9065 53.2981 28.9841 53.3187C29.3088 53.4171 29.6233 53.534 29.9521 53.5955C50.9328 57.4165 57.029 40.9903 57.029 40.9903C51.9069 47.656 42.8166 49.4136 34.2083 47.457C33.8897 47.3832 33.5711 47.2806 33.2484 47.1863C32.793 47.0568 32.3414 46.9139 31.8944 46.7576L32.0884 46.8171L31.9618 46.7679C31.684 46.6735 31.4165 46.569 31.1448 46.4644C31.0784 46.436 31.0109 46.41 30.9427 46.3864L30.9202 46.3803C30.62 46.2593 30.3279 46.1362 30.0379 46.007C29.9746 45.9865 29.9215 45.9578 29.8582 45.9332C29.5147 45.7828 29.1742 45.6255 28.837 45.4614L29.1189 45.5865C29.0453 45.5539 28.9731 45.5183 28.9024 45.4799C28.7104 45.3896 28.5184 45.2871 28.3305 45.1907C28.1874 45.1226 28.0465 45.0501 27.9078 44.9733L27.9486 44.9938C27.7179 44.8708 27.4871 44.7374 27.2542 44.6123C27.1848 44.5631 27.1052 44.5221 27.0255 44.477C26.6794 44.275 26.3376 44.0657 26.0003 43.8494L26.1289 43.9273C26.0425 43.8737 25.958 43.8169 25.8757 43.7571L25.8879 43.7653C25.6684 43.6299 25.4532 43.4876 25.2426 43.3387C25.1731 43.2936 25.1098 43.2443 25.0383 43.1951C24.8183 43.0443 24.6018 42.8884 24.3889 42.7275L24.4379 42.7624C24.3521 42.6926 24.2602 42.627 24.1683 42.5593C23.9886 42.4178 23.8068 42.2824 23.6271 42.1348L23.3861 41.942C23.1293 41.7368 22.8773 41.5255 22.6305 41.3082L22.6284 41.3062L21.9197 40.6601L21.7155 40.4674C21.548 40.2971 21.3765 40.1351 21.2049 39.9669L21.0068 39.7618C20.7954 39.5515 20.589 39.3361 20.388 39.1158L20.3758 39.1014L20.341 39.0727C20.1248 38.8342 19.9117 38.5929 19.7018 38.3487C19.6467 38.2851 19.5956 38.2174 19.5384 38.1498L19.0748 37.5858C18.8658 37.3221 18.6616 37.0548 18.4621 36.7838L18.3804 36.669C13.6055 30.1551 11.8777 21.1658 15.6989 13.7905L12.325 18.075C7.98508 24.3078 8.5222 32.4132 11.841 39.0317C11.9165 39.1937 12.0003 39.3455 12.0819 39.4993Z" fill="#1266A9"/>
<path d="M26.6986 30.5203L26.6761 30.4875L26.6577 30.4629L26.6986 30.5203Z" fill="black"/>
<path d="M28.9817 33.2113L29.1655 33.3958C29.3983 33.6215 29.6373 33.8409 29.8803 34.0604L29.911 34.087C30.156 34.3044 30.4317 34.5321 30.7156 34.7536L30.7585 34.7864C30.828 34.8336 30.8872 34.8889 30.9546 34.9361C31.2405 35.1576 31.5285 35.3689 31.8287 35.5801L31.8593 35.5986C31.9859 35.6909 32.1207 35.775 32.2637 35.8652C32.3209 35.9021 32.3862 35.9513 32.4475 35.9883C32.664 36.1277 32.8764 36.2569 33.0949 36.3902C33.1296 36.4046 33.1603 36.4231 33.1929 36.4374C33.3768 36.5502 33.5769 36.6589 33.7689 36.7574C33.8363 36.7984 33.9016 36.8291 33.9711 36.8681C34.1079 36.9358 34.2427 37.0076 34.3734 37.0773L34.4388 37.106C34.7145 37.2414 34.9963 37.3686 35.272 37.4937C35.3415 37.5203 35.4007 37.5429 35.4599 37.5716C35.6866 37.67 35.9174 37.7644 36.1441 37.8505C36.2462 37.8854 36.3422 37.9264 36.4382 37.9572C36.6465 38.0351 36.865 38.1069 37.0713 38.1787L37.3572 38.271C37.6554 38.3633 37.9576 38.4843 38.2742 38.5335C54.4758 41.2121 58.2255 28.7484 58.2255 28.7484C54.8496 33.603 48.3162 35.9165 41.354 34.1096C41.0065 34.0216 40.6618 33.9224 40.3206 33.8122L40.437 33.845C40.339 33.8183 40.2532 33.7876 40.1593 33.7589C39.9469 33.685 39.7283 33.6132 39.5221 33.5374L39.228 33.4266C38.9992 33.3343 38.7664 33.2482 38.5438 33.1497C38.4744 33.119 38.411 33.0985 38.3579 33.0677C38.072 32.9385 37.7841 32.8113 37.5043 32.676L37.0835 32.4565L36.8405 32.3334C36.6526 32.235 36.479 32.1325 36.2993 32.0279C36.2535 32.0062 36.2091 31.9816 36.1665 31.954L36.1727 31.9561C35.9562 31.8207 35.7315 31.6894 35.5232 31.552C35.4538 31.5131 35.3905 31.4659 35.3251 31.4249L34.9003 31.148C34.6062 30.9429 34.3183 30.7234 34.0262 30.5101C33.9609 30.4507 33.8975 30.4014 33.8342 30.3481C30.7728 27.9423 28.3588 24.6547 27.2131 20.9322C26.0061 17.062 26.2716 12.7222 28.3568 9.20068L25.7937 12.8268C22.6465 17.3409 22.8242 23.3749 25.2749 28.1495C25.7222 29.0314 26.1756 29.7759 26.6759 30.4855C27.1416 31.1541 27.6563 31.9376 28.2771 32.475C28.4977 32.7272 28.7346 32.9672 28.9817 33.2113Z" fill="#1266A9"/>
<path d="M14.1856 42.8755L14.1774 42.8632L14.1631 42.8448L14.1856 42.8755ZM22.6775 41.3496L22.6979 41.364L22.702 41.3701L22.6775 41.3496Z" fill="black"/>
<path d="M37.1206 8.90124C35.2641 11.6229 35.0864 15.0028 36.3649 18.0034C37.7231 21.1906 40.4986 23.6928 43.7336 24.8782C43.8663 24.9295 43.995 24.9725 44.1318 25.0218L44.3116 25.0772C44.4994 25.1366 44.6894 25.2064 44.8834 25.2494C53.8307 26.9743 56.2529 20.6594 56.9044 19.7303C54.7743 22.7862 51.2023 23.5205 46.8195 22.456C46.4384 22.3627 46.0633 22.2463 45.6962 22.1074L45.7636 22.1299C45.3069 21.9712 44.8596 21.7863 44.4239 21.5762L44.5015 21.611C43.6641 21.2008 42.9452 20.7578 42.2774 20.2492C38.3603 17.2753 35.9381 11.6126 38.4951 7L37.1206 8.90124Z" fill="#1266A9"/>
</g>
</svg>
