<svg width="65" height="65" viewBox="0 0 65 65" fill="none" xmlns="http://www.w3.org/2000/svg">
<mask id="mask0_1996_48690" style="mask-type:alpha" maskUnits="userSpaceOnUse" x="0" y="0" width="65" height="65">
<rect width="65" height="65" fill="#D9D9D9"/>
</mask>
<g mask="url(#mask0_1996_48690)">
<g clip-path="url(#clip0_1996_48690)">
<path d="M56.4524 32.5051C56.4524 29.3075 52.4328 26.2773 46.2701 24.3981C47.6922 18.1408 47.0602 13.1625 44.2751 11.5686C43.6331 11.1947 42.8826 11.0177 42.0628 11.0177V13.2117C42.5171 13.2117 42.8826 13.3002 43.1887 13.4675C44.5319 14.2349 45.1146 17.1569 44.6603 20.9152C44.5516 21.8401 44.3739 22.8141 44.1566 23.8078C42.2209 23.3355 40.1074 22.9715 37.8852 22.7354C36.5519 20.9152 35.1693 19.2624 33.7767 17.8161C36.9964 14.835 40.0185 13.2018 42.0727 13.2018V11.0078C39.3568 11.0078 35.8014 12.9362 32.2064 16.2813C28.6115 12.9558 25.0561 11.0472 22.3402 11.0472V13.2412C24.3845 13.2412 27.4165 14.8645 30.6361 17.8259C29.2535 19.2722 27.8708 20.9152 26.5573 22.7354C24.3253 22.9715 22.2118 23.3355 20.2761 23.8176C20.0489 22.8338 19.881 21.8794 19.7625 20.9644C19.2983 17.2061 19.8711 14.2841 21.2044 13.5068C21.5007 13.3297 21.8859 13.251 22.3402 13.251V11.057C21.5106 11.057 20.76 11.2341 20.1082 11.608C17.333 13.2018 16.7108 18.1703 18.1428 24.4079C11.9998 26.2969 8 29.3174 8 32.5051C8 35.7026 12.0196 38.7329 18.1823 40.6121C16.7601 46.8694 17.3922 51.8477 20.1773 53.4415C20.8192 53.8154 21.5698 53.9925 22.3994 53.9925C25.1154 53.9925 28.6708 52.0641 32.2657 48.719C35.8606 52.0445 39.416 53.9531 42.132 53.9531C42.9616 53.9531 43.7122 53.7761 44.364 53.4022C47.1392 51.8083 47.7614 46.8399 46.3293 40.6022C52.4525 38.723 56.4524 35.6928 56.4524 32.5051ZM43.5936 25.9428C43.2282 27.2119 42.7739 28.5205 42.2604 29.829C41.8554 29.0419 41.4308 28.2548 40.9666 27.4677C40.5123 26.6806 40.0284 25.9132 39.5444 25.1655C40.9468 25.3721 42.2999 25.6279 43.5936 25.9428ZM39.0704 36.4208C38.3 37.749 37.5099 39.0084 36.6902 40.1792C35.2187 40.3071 33.7274 40.3759 32.2262 40.3759C30.7349 40.3759 29.2436 40.3071 27.7819 40.189C26.9622 39.0182 26.1622 37.7687 25.3919 36.4503C24.6413 35.1615 23.9599 33.853 23.3377 32.5346C23.95 31.2162 24.6413 29.8979 25.382 28.609C26.1524 27.2808 26.9425 26.0215 27.7622 24.8507C29.2337 24.7228 30.725 24.6539 32.2262 24.6539C33.7175 24.6539 35.2088 24.7228 36.6705 24.8408C37.4902 26.0116 38.2901 27.2611 39.0605 28.5795C39.8111 29.8683 40.4925 31.1769 41.1147 32.4952C40.4925 33.8136 39.8111 35.132 39.0704 36.4208ZM42.2604 35.1418C42.7937 36.4602 43.248 37.7785 43.6233 39.0576C42.3295 39.3724 40.9666 39.638 39.5543 39.8446C40.0382 39.0871 40.5222 38.3098 40.9765 37.5129C41.4308 36.7258 41.8554 35.9289 42.2604 35.1418ZM32.2459 45.6396C31.3275 44.6951 30.409 43.6423 29.5004 42.4912C30.3892 42.5306 31.2978 42.5601 32.2163 42.5601C33.1447 42.5601 34.0632 42.5404 34.9619 42.4912C34.073 43.6423 33.1546 44.6951 32.2459 45.6396ZM24.8981 39.8446C23.4957 39.638 22.1426 39.3822 20.8489 39.0674C21.2143 37.7982 21.6686 36.4897 22.1821 35.1812C22.5871 35.9683 23.0117 36.7553 23.4759 37.5424C23.9401 38.3295 24.4142 39.0969 24.8981 39.8446ZM32.1966 19.3706C33.115 20.3151 34.0335 21.3678 34.9421 22.5189C34.0533 22.4796 33.1447 22.4501 32.2262 22.4501C31.2978 22.4501 30.3794 22.4697 29.4806 22.5189C30.3695 21.3678 31.288 20.3151 32.1966 19.3706ZM24.8882 25.1655C24.4043 25.9231 23.9204 26.7003 23.466 27.4972C23.0117 28.2843 22.5871 29.0714 22.1821 29.8585C21.6488 28.5401 21.1945 27.2218 20.8192 25.9428C22.113 25.6378 23.4759 25.3721 24.8882 25.1655ZM15.9503 37.4834C12.4541 35.9978 10.1925 34.0497 10.1925 32.5051C10.1925 30.9604 12.4541 29.0025 15.9503 27.5268C16.7997 27.1627 17.728 26.8381 18.686 26.5331C19.2489 28.4614 19.9896 30.4685 20.9081 32.5248C19.9995 34.5712 19.2687 36.5684 18.7156 38.4869C17.7379 38.1819 16.8095 37.8474 15.9503 37.4834ZM21.2637 51.5427C19.9205 50.7753 19.3378 47.8532 19.7921 44.0949C19.9008 43.1701 20.0785 42.1961 20.2958 41.2024C22.2315 41.6746 24.345 42.0386 26.5672 42.2748C27.9004 44.0949 29.2831 45.7478 30.6756 47.1941C27.456 50.1751 24.4339 51.8083 22.3797 51.8083C21.9352 51.7985 21.56 51.71 21.2637 51.5427ZM44.6899 44.0457C45.1541 47.804 44.5812 50.7261 43.248 51.5033C42.9517 51.6804 42.5665 51.7591 42.1122 51.7591C40.0679 51.7591 37.0359 50.1358 33.8163 47.1744C35.1989 45.7281 36.5816 44.0851 37.8951 42.2649C40.1271 42.0288 42.2406 41.6648 44.1763 41.1827C44.4035 42.1764 44.5813 43.1307 44.6899 44.0457ZM48.4922 37.4834C47.6429 37.8474 46.7145 38.1721 45.7565 38.4771C45.1936 36.5487 44.4529 34.5417 43.5344 32.4854C44.443 30.439 45.1738 28.4417 45.7269 26.5232C46.7046 26.8282 47.633 27.1627 48.5021 27.5268C51.9982 29.0124 54.2599 30.9604 54.2599 32.5051C54.25 34.0497 51.9884 36.0076 48.4922 37.4834Z" fill="#61DAFB"/>
<path d="M32.2165 37.0012C34.7092 37.0012 36.7299 34.9882 36.7299 32.505C36.7299 30.0218 34.7092 28.0088 32.2165 28.0088C29.7238 28.0088 27.7031 30.0218 27.7031 32.505C27.7031 34.9882 29.7238 37.0012 32.2165 37.0012Z" fill="#61DAFB"/>
</g>
</g>
<defs>
<clipPath id="clip0_1996_48690">
<rect width="48.4524" height="55" fill="white" transform="translate(8 5)"/>
</clipPath>
</defs>
</svg>
