<svg width="65" height="65" viewBox="0 0 65 65" fill="none" xmlns="http://www.w3.org/2000/svg">
<mask id="mask0_1996_48742" style="mask-type:alpha" maskUnits="userSpaceOnUse" x="0" y="0" width="65" height="65">
<rect width="65" height="65" fill="#D9D9D9"/>
</mask>
<g mask="url(#mask0_1996_48742)">
<g clip-path="url(#clip0_1996_48742)">
<path d="M52.3303 35.5484C50.4074 35.5592 48.7424 36.0181 47.3459 36.7014C46.8303 35.6873 46.3147 34.8012 46.2288 34.1395C46.1322 33.3709 46.014 32.9011 46.1322 31.9832C46.2502 31.0651 46.7873 29.7628 46.7873 29.656C46.7765 29.56 46.6691 29.0903 45.5627 29.0796C44.4564 29.0689 43.5002 29.2931 43.3928 29.5813C43.2854 29.8695 43.0705 30.5313 42.9309 31.2145C42.7375 32.2179 40.718 35.7726 39.5686 37.6406C39.1926 36.9148 38.8703 36.2743 38.8058 35.7618C38.7092 34.9933 38.5909 34.5235 38.7092 33.6056C38.8274 32.6875 39.3645 31.3853 39.3645 31.2786C39.3537 31.1825 39.2463 30.7128 38.14 30.7021C37.0334 30.6915 36.0775 30.9156 35.9701 31.2038C35.8626 31.4921 35.7445 32.1752 35.5081 32.8371C35.2824 33.4989 32.5969 39.434 31.8987 40.9818C31.5442 41.7717 31.2327 42.4015 31.0071 42.8285C30.7815 43.2555 30.9963 42.8605 30.9748 42.9032C30.7815 43.2662 30.674 43.469 30.674 43.469V43.4798C30.5237 43.7466 30.3625 44.0027 30.2872 44.0027C30.2335 44.0027 30.1261 43.2875 30.3087 42.3056C30.7062 40.2453 31.673 37.0323 31.6623 36.9149C31.6623 36.8615 31.8448 36.2956 31.0392 36.0075C30.255 35.7193 29.9758 36.1997 29.9112 36.1997C29.8468 36.1997 29.7931 36.3705 29.7931 36.3705C29.7931 36.3705 30.6632 32.7519 28.128 32.7519C26.5382 32.7519 24.3468 34.4705 23.2618 36.0397C22.5743 36.4133 21.1134 37.2031 19.5665 38.0465C18.9757 38.3667 18.3634 38.7083 17.7833 39.0179L17.6653 38.8896C14.593 35.6338 8.91037 33.3281 9.1467 28.9515C9.23264 27.361 9.79123 23.1659 20.0609 18.0847C28.472 13.9216 35.2074 15.0638 36.3781 17.6044C38.0432 21.2337 32.7795 27.9801 24.0355 28.9515C20.7054 29.3251 18.9543 28.0442 18.514 27.5638C18.0521 27.0621 17.9876 27.0407 17.8158 27.1368C17.5365 27.2863 17.7083 27.7346 17.8158 28.0015C18.0736 28.674 19.1478 29.8695 20.974 30.4673C22.5744 30.9904 26.4847 31.2786 31.2113 29.4639C36.5072 27.425 40.6429 21.7675 39.429 17.0386C38.1937 12.2244 30.1585 10.6445 22.5638 13.3238C18.0412 14.925 13.1428 17.4229 9.61936 20.7C5.42991 24.5856 4.76389 27.9801 5.04319 29.3892C6.02083 34.4169 12.9924 37.694 15.7854 40.1172C15.6457 40.1918 15.5168 40.2665 15.3987 40.3307C14.0022 41.0137 8.68479 43.7786 7.35276 46.7033C5.84885 50.0124 7.58909 52.393 8.74924 52.7132C12.3371 53.706 16.011 51.9233 17.9983 48.9878C19.9747 46.0522 19.7385 42.2414 18.8254 40.5014L18.7931 40.4374L19.8888 39.7969C20.5979 39.3806 21.2961 38.9963 21.9083 38.6653C21.5647 39.594 21.3175 40.6935 21.1887 42.2947C21.0383 44.1735 21.8117 46.6072 22.8322 47.5679C23.2834 47.9841 23.8205 47.9949 24.1535 47.9949C25.3352 47.9949 25.8723 47.0234 26.4631 45.86C27.1936 44.4403 27.8381 42.7964 27.8381 42.7964C27.8381 42.7964 27.0324 47.2477 29.2346 47.2477C30.0403 47.2477 30.8459 46.2123 31.2112 45.6785V45.6892C31.2112 45.6892 31.2326 45.6572 31.2756 45.5825C31.3207 45.5162 31.3637 45.4486 31.4045 45.3798V45.3584C31.7268 44.8033 32.4465 43.533 33.5207 41.4301C34.9064 38.7188 36.2385 35.3243 36.2385 35.3243C36.2385 35.3243 36.3674 36.1569 36.7649 37.5232C37.0011 38.3346 37.5167 39.2205 37.9142 40.0851C37.5919 40.5335 37.3985 40.7898 37.3985 40.7898L37.4093 40.8004C37.1516 41.142 36.8614 41.5051 36.5608 41.8679C35.4651 43.1702 34.1545 44.6541 33.9826 45.0811C33.7785 45.5827 33.8215 45.9563 34.219 46.2553C34.509 46.4688 35.0246 46.5114 35.5725 46.4688C36.5608 46.4046 37.2483 46.1592 37.592 46.0097C38.1291 45.8175 38.7414 45.5293 39.3322 45.1023C40.4065 44.3125 41.0617 43.1917 40.9973 41.6972C40.9651 40.8753 40.6965 40.064 40.3635 39.2954C40.4602 39.1567 40.557 39.0178 40.6535 38.8684C42.3508 36.4025 43.6614 33.6912 43.6614 33.6912C43.6614 33.6912 43.7903 34.5239 44.1877 35.8902C44.3917 36.5841 44.8 37.3421 45.1653 38.0893C43.5754 39.3809 42.5764 40.8754 42.2326 41.8574C41.5989 43.6721 42.093 44.4941 43.0276 44.6862C43.4464 44.7716 44.0481 44.5795 44.4991 44.3873C45.0577 44.2059 45.7345 43.8962 46.3576 43.4373C47.4319 42.6474 48.4631 41.5479 48.4094 40.0641C48.3772 39.3809 48.1946 38.7084 47.9475 38.068C49.301 37.5129 51.0519 37.1926 53.2756 37.4595C58.0559 38.0146 59.0012 40.9821 58.8187 42.2204C58.6361 43.4587 57.637 44.1418 57.3039 44.3553C56.9709 44.5581 56.8635 44.633 56.8957 44.7823C56.9387 45.0066 57.0891 44.9958 57.3791 44.9532C57.7766 44.889 59.8928 43.9391 59.9787 41.6548C60.1076 38.7189 57.3039 35.5165 52.3303 35.5484ZM15.4631 47.899C13.884 49.6176 11.6604 50.2687 10.7151 49.7136C9.69455 49.1265 10.0919 46.5967 12.0364 44.7713C13.218 43.6611 14.7541 42.6364 15.7639 42.0066C15.9895 41.8678 16.3332 41.6651 16.7414 41.4195C16.8059 41.3769 16.8489 41.3554 16.8489 41.3554C16.924 41.3127 17.01 41.2593 17.0959 41.206C17.8156 43.8106 17.1281 46.0949 15.4631 47.899ZM27.011 40.0958C26.4631 41.4301 25.303 44.8567 24.6047 44.6646C24.003 44.5044 23.6379 41.9105 24.4864 39.3486C24.9161 38.0569 25.8292 36.5198 26.3663 35.9219C27.2365 34.9612 28.1818 34.641 28.4182 35.0359C28.6975 35.5484 27.3547 39.2632 27.011 40.0958ZM36.5393 44.6219C36.303 44.7394 36.0881 44.8247 35.9914 44.7607C35.9162 44.718 36.088 44.5579 36.088 44.5579C36.088 44.5579 37.2804 43.2876 37.753 42.7005C38.0216 42.359 38.3439 41.9641 38.6876 41.5156V41.6437C38.6877 43.1808 37.2053 44.2055 36.5393 44.6219ZM43.8868 42.9566C43.715 42.8285 43.7365 42.4336 44.3165 41.1953C44.5422 40.7043 45.0577 39.8823 45.9493 39.1031C46.0568 39.4233 46.1213 39.7328 46.1105 40.0211C46.0998 41.9425 44.7248 42.6577 43.8868 42.9566Z" fill="#CF649A"/>
</g>
</g>
<defs>
<clipPath id="clip0_1996_48742">
<rect width="55" height="40.9906" fill="white" transform="translate(5 12)"/>
</clipPath>
</defs>
</svg>
