<svg width="15" height="15" viewBox="0 0 15 15" fill="none" xmlns="http://www.w3.org/2000/svg">
<mask id="mask0_1698_2119" style="mask-type:alpha" maskUnits="userSpaceOnUse" x="0" y="0" width="15" height="15">
<rect width="15" height="15" fill="#D9D9D9"/>
</mask>
<g mask="url(#mask0_1698_2119)">
<g clip-path="url(#clip0_1698_2119)">
<path d="M4.78571 0.882355H10.0313L14.9645 9.5085H9.70714L4.78571 0.882355Z" fill="url(#paint0_linear_1698_2119)"/>
<path d="M14.9645 9.50867L12.3358 14.1176H2.49298L5.12756 9.50867H14.9645Z" fill="url(#paint1_linear_1698_2119)"/>
<path d="M2.49313 14.1175L-0.123779 9.5085L4.78585 0.882355L7.42045 5.5033L2.49313 14.1175Z" fill="url(#paint2_linear_1698_2119)"/>
<path opacity="0.1" d="M2.49298 14.1175L7.39084 9.5085H5.12756L2.49298 14.1175ZM14.9645 9.5085H9.71304L8.55783 7.48796L14.9645 9.5085ZM4.78572 0.882355L6.30045 7.45807L7.4203 5.5033L4.78572 0.882355Z" fill="black"/>
</g>
</g>
<defs>
<linearGradient id="paint0_linear_1698_2119" x1="4.78576" y1="-0.976347" x2="730.808" y2="1212.03" gradientUnits="userSpaceOnUse">
<stop stop-color="#F6C338"/>
<stop offset="0.523" stop-color="#FFD351"/>
<stop offset="1" stop-color="#F6C338"/>
</linearGradient>
<linearGradient id="paint1_linear_1698_2119" x1="1124.93" y1="8.51558" x2="909.823" y2="832.661" gradientUnits="userSpaceOnUse">
<stop stop-color="#286EE6"/>
<stop offset="0.521" stop-color="#4286FB"/>
<stop offset="1" stop-color="#286EE6"/>
</linearGradient>
<linearGradient id="paint2_linear_1698_2119" x1="442.823" y1="0.882371" x2="-119.321" y2="1549.66" gradientUnits="userSpaceOnUse">
<stop stop-color="#069B5A"/>
<stop offset="0.531" stop-color="#11AA62"/>
<stop offset="1" stop-color="#069B5A"/>
</linearGradient>
<clipPath id="clip0_1698_2119">
<rect width="15" height="13.2353" fill="white" transform="translate(0 0.882355)"/>
</clipPath>
</defs>
</svg>
