<svg width="15" height="15" viewBox="0 0 15 15" fill="none" xmlns="http://www.w3.org/2000/svg">
<path fill-rule="evenodd" clip-rule="evenodd" d="M2.358 14.1089L0.638318 11.9666C0.224566 11.4511 0 10.8173 0 10.1649V2.40749C0 1.43032 0.781792 0.619484 1.79036 0.550625L9.76606 0.00609137C10.3455 -0.0334687 10.9214 0.120545 11.3974 0.44235L14.1996 2.33695C14.7012 2.6761 15 3.2305 15 3.82213V12.6416C15 13.5979 14.2313 14.3897 13.2438 14.4504L4.39166 14.9953C3.60366 15.0438 2.842 14.7118 2.358 14.1089Z" fill="white"/>
<path d="M5.12411 6.28929V6.18775C5.12411 5.93028 5.3303 5.71679 5.59603 5.69903L7.53171 5.5698L10.2086 9.5117V6.05201L9.51955 5.96017V5.91193C9.51955 5.65145 9.73046 5.43652 9.99961 5.42273L11.7609 5.33252V5.58599C11.7609 5.70497 11.6724 5.80673 11.5511 5.82724L11.1273 5.89892V11.5018L10.5953 11.6847C10.151 11.8375 9.65625 11.674 9.40184 11.2901L6.8031 7.36855V11.1114L7.60299 11.2645L7.59184 11.3387C7.55694 11.5711 7.35627 11.7469 7.11355 11.7577L5.12411 11.8462C5.09779 11.5963 5.2851 11.3727 5.5435 11.3456L5.8052 11.3181V6.32756L5.12411 6.28929Z" fill="black"/>
<path fill-rule="evenodd" clip-rule="evenodd" d="M9.83757 0.983361L1.86186 1.5279C1.38412 1.56051 1.01379 1.94459 1.01379 2.40745V10.1649C1.01379 10.5998 1.1635 11.0224 1.43934 11.366L3.15903 13.5083C3.43706 13.8547 3.87461 14.0454 4.3273 14.0176L13.1794 13.4727C13.6331 13.4447 13.9863 13.081 13.9863 12.6416V3.8221C13.9863 3.55026 13.8491 3.29554 13.6186 3.13972L10.8164 1.24512C10.5308 1.05203 10.1852 0.959625 9.83757 0.983361ZM2.25735 2.52847C2.14643 2.44634 2.19922 2.27524 2.33858 2.26524L9.89122 1.72353C10.1319 1.70627 10.371 1.77253 10.5656 1.91041L12.081 2.98404C12.1385 3.02479 12.1115 3.11279 12.0403 3.11666L4.04207 3.55164C3.80002 3.56482 3.56109 3.4937 3.36863 3.35122L2.25735 2.52847ZM3.6669 4.91532C3.6669 4.65548 3.87682 4.44084 4.14525 4.42623L12.6017 3.9657C12.8633 3.95146 13.0835 4.15263 13.0835 4.40588V12.0426C13.0835 12.302 12.8743 12.5164 12.6064 12.5316L4.20357 13.0098C3.91242 13.0263 3.6669 12.8026 3.6669 12.5207V4.91532Z" fill="black"/>
</svg>
