<svg width="15" height="15" viewBox="0 0 15 15" fill="none" xmlns="http://www.w3.org/2000/svg">
<mask id="mask0_1698_2140" style="mask-type:alpha" maskUnits="userSpaceOnUse" x="0" y="0" width="15" height="15">
<rect width="15" height="15" fill="#D9D9D9"/>
</mask>
<g mask="url(#mask0_1698_2140)">
<path d="M7.5 0C3.36329 0 0 3.36329 0 7.5C0 11.6367 3.36329 15 7.5 15C11.6367 15 15 11.6367 15 7.5C15 3.36329 11.6367 0 7.5 0Z" fill="#FDDD4C"/>
<path d="M4.2153 9.4555C4.0513 9.20721 4.46376 8.83144 4.29602 8.51595C4.1993 8.33398 4.04122 8.22058 3.85136 8.19678C3.66916 8.17393 3.48148 8.24064 3.36185 8.37098C3.17296 8.57652 3.14359 8.8563 3.18013 8.9553C3.1935 8.99161 3.2145 9.0015 3.22956 9.00364C3.33245 9.01718 3.39033 8.75312 3.42585 8.69815C3.52405 8.54655 3.74705 8.5007 3.90105 8.60032C4.19305 8.78918 3.93985 9.09444 3.9617 9.35224C3.98296 9.6033 4.13936 9.70418 4.27976 9.71478C4.41636 9.71995 4.51188 9.64407 4.53599 9.58867C4.59382 9.45644 4.35022 9.65978 4.2153 9.4555Z" fill="black"/>
<path d="M10.3165 7.17636C10.2399 7.16576 10.1562 7.16602 10.0691 7.17636C10.003 7.09293 9.94375 6.95785 9.91033 6.80016C9.85087 6.51968 9.8571 6.31648 10.023 6.29008C10.189 6.26368 10.2692 6.43339 10.3287 6.7139C10.3686 6.90248 10.3609 7.07573 10.3165 7.17636Z" fill="black"/>
<path d="M8.49877 7.34323C8.50531 7.40678 8.50763 7.47103 8.50577 7.5302C8.66637 7.53963 8.78011 7.61592 8.8104 7.66429C8.82591 7.68929 8.81971 7.70555 8.81468 7.71309C8.79808 7.73895 8.76246 7.73495 8.68783 7.72658C8.62263 7.71926 8.55243 7.71283 8.47948 7.71618C8.43977 7.83795 8.32208 7.84932 8.23937 7.75929C8.1816 7.77689 8.06811 7.84938 8.03431 7.7706C8.034 7.73155 8.07485 7.67475 8.14888 7.62458C8.09837 7.5282 8.06451 7.42503 8.04451 7.31823C7.9396 7.33715 7.84523 7.36652 7.77126 7.38955C7.73651 7.40038 7.59911 7.46243 7.583 7.39249C7.57226 7.34418 7.64746 7.26449 7.727 7.20698C7.81583 7.14389 7.91443 7.09906 8.0166 7.07318C8.0144 6.92103 8.05323 6.81492 8.16374 6.79732C8.3008 6.77552 8.38574 6.88103 8.44454 7.07643C8.61017 7.12246 8.7756 7.23658 8.8486 7.35455C8.87703 7.40026 8.88251 7.43563 8.86411 7.45423C8.81823 7.50183 8.56391 7.36389 8.49877 7.34323Z" fill="black"/>
<path d="M9.58794 8.02702C9.69302 8.07793 9.8086 8.0579 9.84631 7.98225C9.88405 7.90659 9.82937 7.80405 9.72428 7.75313C9.61922 7.70222 9.50365 7.72225 9.46591 7.7979C9.4282 7.87359 9.48288 7.9761 9.58794 8.02702Z" fill="black"/>
<path d="M10.1053 7.65128C10.1072 7.53554 10.1781 7.44314 10.2633 7.44457C10.3486 7.44619 10.4162 7.54097 10.4143 7.65645C10.4124 7.77197 10.3414 7.86437 10.2562 7.86294C10.1709 7.86154 10.1034 7.76677 10.1053 7.65128Z" fill="black"/>
<path fill-rule="evenodd" clip-rule="evenodd" d="M12.4171 9.06864C12.4164 9.06624 12.4188 9.07456 12.4171 9.06864C12.5883 9.06864 12.8572 9.26287 12.8572 9.73219C12.8572 10.1991 12.6609 10.7281 12.6146 10.8454C11.9075 12.5181 10.22 13.4492 8.20983 13.3902C6.33578 13.3353 4.73752 12.3592 4.03809 10.7679C3.6152 10.7684 3.17915 10.5848 2.84772 10.2948C2.49835 9.98933 2.28298 9.59404 2.24095 9.18179C2.20823 8.86076 2.24809 8.5621 2.35006 8.30164L1.95726 7.97304C0.159613 6.47484 5.782 0.306237 7.58012 1.85441C7.5892 1.86219 8.19192 2.44581 8.19335 2.44721C9.06037 2.08384 11.3834 1.39199 11.386 3.00256C11.387 3.53739 11.0417 4.1611 10.4884 4.72704C11.1278 5.31239 10.9592 6.14381 11.061 6.90667L11.2831 6.9675C11.7065 7.08464 12.0076 7.24093 12.1549 7.39367C12.3023 7.54619 12.3753 7.69396 12.4019 7.86721C12.4267 8.00699 12.4233 8.25379 12.2366 8.52981C12.3039 8.70787 12.3652 8.88539 12.4171 9.06864ZM4.00635 10.334C4.06915 10.3354 4.13146 10.3314 4.1926 10.321C4.84952 10.2104 5.02146 9.50613 4.91329 8.81456C4.791 8.03361 4.25589 7.75833 3.89266 7.73876C3.79166 7.73356 3.69783 7.74253 3.62046 7.75784C2.97212 7.88679 2.60606 8.43127 2.67818 9.13841C2.74335 9.77839 3.39909 10.3179 4.00635 10.334ZM2.538 7.94973C2.75555 7.63787 3.11109 7.4123 3.51466 7.33473C4.02832 5.97373 4.88606 4.71973 6.02129 3.85679C6.86375 3.16307 7.77235 2.6655 7.77235 2.6655C7.77235 2.6655 7.28306 2.10544 7.13526 2.06419C6.22618 1.82187 4.2628 3.15836 3.00915 4.92433C2.50195 5.63879 1.77577 6.9041 2.12298 7.5549C2.16572 7.6355 2.40809 7.8427 2.538 7.94973ZM9.90838 10.0214C9.9098 10.036 9.90072 10.0511 9.8876 10.0565C9.8876 10.0565 9.15712 10.3919 7.99683 10.0377C8.03855 10.3855 8.46032 10.5173 8.755 10.565C10.1928 10.8092 11.5369 9.99759 11.8395 9.79324C11.8915 9.75813 11.8389 9.84836 11.8295 9.86159C11.4591 10.3332 10.4633 10.8794 9.16786 10.8792C8.60289 10.8789 8.03815 10.6826 7.83086 10.3806C7.5092 9.91227 7.81486 9.22847 8.35095 9.29964C9.25712 9.40064 10.1861 9.32476 11.025 8.94041C11.7564 8.60524 12.0327 8.23659 11.9911 7.93793C11.9267 7.47507 11.2405 7.4027 10.8936 7.29019C10.7427 7.24093 10.6682 7.20156 10.6513 6.9213C10.6439 6.79896 10.6224 6.37207 10.6145 6.19553C10.6006 5.88653 10.5629 5.46387 10.2974 5.28944C10.2281 5.24396 10.1512 5.22204 10.0703 5.21779C10.0057 5.21473 9.96746 5.22359 9.94689 5.22836C9.94226 5.22941 9.93852 5.23027 9.9356 5.23076C9.7922 5.25484 9.70435 5.32736 9.60072 5.4129C9.59478 5.41784 9.58875 5.42281 9.58266 5.42781C9.25146 5.7003 8.97183 5.74484 8.66066 5.73164C8.56378 5.72759 8.46389 5.71793 8.35855 5.7077C8.26163 5.69833 8.16009 5.68847 8.05198 5.68216L7.91995 5.67461C7.39889 5.64821 6.84012 6.0923 6.7472 6.72307C6.64343 7.42713 7.03697 7.85839 7.29289 8.13884C7.35615 8.20813 7.41098 8.26824 7.44783 8.32096C7.47149 8.35279 7.49895 8.39756 7.49895 8.44024C7.49895 8.49116 7.46552 8.53144 7.4328 8.56587C6.90123 9.10541 6.7312 9.9627 6.93158 10.6772C6.95663 10.7662 6.9884 10.8516 7.02589 10.9331C7.49583 12.0172 8.95392 12.5221 10.3781 12.0629C11.3762 11.7411 12.2581 10.9634 12.4377 9.89059C12.4804 9.61101 12.4176 9.50307 12.3321 9.45099C12.2416 9.39604 12.1332 9.41516 12.1332 9.41516C12.1332 9.41516 12.0838 9.08113 11.9439 8.77753C11.5286 9.10093 10.9942 9.32816 10.5873 9.44344C9.93532 9.62804 9.23112 9.69993 8.55743 9.61287C8.28417 9.57756 8.1006 9.55384 8.02189 9.80619C8.92049 10.131 9.8716 9.99193 9.8716 9.99193C9.88998 9.99004 9.90646 10.0032 9.90838 10.0214ZM7.31578 3.71819C6.82435 3.96639 6.2756 4.40836 5.83 4.91679C5.81426 4.93493 5.83766 4.95993 5.857 4.94601C6.24192 4.66953 6.76966 4.41259 7.46098 4.24619C8.23538 4.05973 8.98089 4.13799 9.43626 4.24099C9.4592 4.24619 9.47352 4.2073 9.45323 4.19599C9.15235 4.02933 8.69052 3.91619 8.36289 3.91384C8.34689 3.91358 8.33783 3.89521 8.34738 3.88247C8.40398 3.8073 8.48158 3.73304 8.55249 3.6793C8.56826 3.66704 8.55872 3.64181 8.53866 3.64299C8.13109 3.6677 7.2002 4.09216 7.20355 4.0767C7.22743 3.96356 7.30266 3.81413 7.34158 3.74436C7.35089 3.72784 7.33275 3.7097 7.31578 3.71819Z" fill="black"/>
</g>
</svg>
