<svg width="15" height="15" viewBox="0 0 15 15" fill="none" xmlns="http://www.w3.org/2000/svg">
<path d="M7.5 15C11.6421 15 15 11.6421 15 7.5C15 3.35786 11.6421 0 7.5 0C3.35786 0 0 3.35786 0 7.5C0 11.6421 3.35786 15 7.5 15Z" fill="#0F287F"/>
<path fill-rule="evenodd" clip-rule="evenodd" d="M4.82145 3.21426L2.14288 4.82141L4.82145 6.42855L2.14288 8.03569L4.82145 9.64284L7.50003 8.03569L10.1786 9.64284L12.8572 8.03569L10.1786 6.42855L12.8572 4.82141L10.1786 3.21426L7.50003 4.82141L4.82145 3.21426ZM7.50003 4.82141L10.1786 6.42855L7.50003 8.03569L4.82145 6.42855L7.50003 4.82141Z" fill="#DAF8FE"/>
<path d="M4.82166 10.7142L7.50023 9.10709L10.1788 10.7142L7.50023 12.3214L4.82166 10.7142Z" fill="#DAF8FE"/>
</svg>
