<svg width="15" height="15" viewBox="0 0 15 15" fill="none" xmlns="http://www.w3.org/2000/svg">
<mask id="mask0_1698_2155" style="mask-type:alpha" maskUnits="userSpaceOnUse" x="0" y="0" width="15" height="15">
<rect width="15" height="15" fill="#D9D9D9"/>
</mask>
<g mask="url(#mask0_1698_2155)">
<path fill-rule="evenodd" clip-rule="evenodd" d="M7.49753 0.226379C5.71701 0.227303 3.99487 0.85793 2.63902 2.0055C1.28321 3.15306 0.382127 4.74275 0.0968948 6.49028C-0.188336 8.2378 0.160885 10.0293 1.08212 11.5443C2.00336 13.0593 3.43652 14.1991 5.12537 14.7598C5.49797 14.829 5.63831 14.5981 5.63831 14.4017C5.63831 14.2054 5.63086 13.6361 5.62837 13.0137C3.54189 13.4644 3.10099 12.1332 3.10099 12.1332C2.76069 11.2688 2.26888 11.0416 2.26888 11.0416C1.58829 10.5797 2.3198 10.5884 2.3198 10.5884C3.07367 10.6415 3.46986 11.3577 3.46986 11.3577C4.13803 12.4975 5.22473 12.1678 5.65198 11.9752C5.71904 11.4923 5.91402 11.1638 6.12888 10.9774C4.46217 10.7897 2.71101 10.15 2.71101 7.29243C2.70068 6.55135 2.97727 5.83466 3.48351 5.29067C3.40651 5.10296 3.14943 4.34474 3.55678 3.31485C3.55678 3.31485 4.18648 3.1148 5.61969 4.07926C6.84902 3.74499 8.14604 3.74499 9.37537 4.07926C10.8073 3.1148 11.4358 3.31485 11.4358 3.31485C11.8444 4.34227 11.5873 5.10052 11.5103 5.29067C12.0182 5.83476 12.2953 6.55268 12.284 7.2949C12.284 10.1586 10.5291 10.7897 8.85994 10.9737C9.12822 11.2058 9.3679 11.659 9.3679 12.3555C9.3679 13.3533 9.35923 14.156 9.35923 14.4017C9.35923 14.6005 9.49459 14.8327 9.87463 14.7598C11.5637 14.199 12.997 13.059 13.9182 11.5437C14.8394 10.0285 15.1885 8.23676 14.9029 6.48907C14.6174 4.74137 13.7158 3.15168 12.3596 2.0043C11.0033 0.856929 9.28074 0.226718 7.5 0.226379H7.49753Z" fill="#121212"/>
</g>
</svg>
