<svg width="15" height="15" viewBox="0 0 15 15" fill="none" xmlns="http://www.w3.org/2000/svg">
<mask id="mask0_1698_2169" style="mask-type:alpha" maskUnits="userSpaceOnUse" x="0" y="0" width="15" height="15">
<rect width="15" height="15" fill="#D9D9D9"/>
</mask>
<g mask="url(#mask0_1698_2169)">
<path d="M13.5939 3.28204C13.0665 3.28204 12.6095 3.57491 12.3693 4.00248L12.34 4.06106L11.2384 6.22823L9.84387 8.97528L10.7579 10.7735L10.8107 10.873C10.9513 11.119 11.1622 11.324 11.42 11.447C11.6779 11.3182 11.8888 11.119 12.0294 10.873L12.0822 10.7735L14.8185 5.38479L14.8829 5.25593C14.9591 5.08022 15.0001 4.89278 15.0001 4.68778C15.0001 3.90877 14.3732 3.28204 13.5939 3.28204ZM5.15051 5.89437L4.24231 4.10206L4.18958 4.00248C4.04895 3.75648 3.83801 3.55148 3.5802 3.42847C3.32239 3.55733 3.11145 3.75648 2.97083 4.00248L2.92395 4.10206L0.187622 9.49072L0.123169 9.61958C0.0469971 9.79529 0.00598145 9.98272 0.00598145 10.1877C0.00598145 10.9609 0.632935 11.5935 1.41223 11.5935C1.93958 11.5935 2.39661 11.3006 2.63684 10.873L2.66614 10.8145L3.7677 8.64727L5.15637 5.90023L5.15051 5.89437Z" fill="#FF5000"/>
<path d="M13.5938 3.28204C13.0664 3.28204 12.6035 3.57491 12.3691 4.00248L12.3398 4.06106L11.2383 6.22823L9.84375 8.97528L10.7578 10.7735L10.8105 10.873C10.9512 11.119 11.1621 11.324 11.4199 11.447C11.6777 11.3182 11.8887 11.119 12.0293 10.873L12.082 10.7735L14.8184 5.38479L14.8828 5.25593C14.959 5.08022 15 4.89278 15 4.68778C15 3.90877 14.3672 3.28204 13.5938 3.28204Z" fill="url(#paint0_linear_1698_2169)"/>
<path d="M1.40625 11.5935C1.93359 11.5935 2.39648 11.3007 2.63086 10.8731L2.66016 10.8145L3.76172 8.64733L5.15625 5.90028L4.24219 4.10211L4.18945 4.00254C4.04883 3.75653 3.83789 3.55153 3.58008 3.42853C3.32227 3.55739 3.11133 3.75653 2.9707 4.00254L2.92383 4.10211L0.1875 9.49077L0.117188 9.62549C0.0410156 9.8012 0 9.98864 0 10.1936C0 10.9668 0.626953 11.5935 1.40625 11.5935Z" fill="url(#paint1_linear_1698_2169)"/>
<path d="M5.15051 5.89437L4.24231 4.10206L4.18958 4.00248C4.04895 3.75648 3.83801 3.55148 3.5802 3.42847C3.66223 3.38747 3.75598 3.35233 3.84387 3.3289C3.9552 3.29962 4.07825 3.28204 4.19543 3.28204H6.11731C6.64465 3.2879 7.10168 3.57491 7.34192 4.00248L7.38293 4.10206L9.84973 8.98114L10.7579 10.7735L10.8107 10.873C10.9513 11.119 11.1622 11.324 11.42 11.447C11.338 11.488 11.2443 11.5232 11.1564 11.5466C11.045 11.5759 10.922 11.5935 10.799 11.5935H8.88879C8.36145 11.5876 7.90442 11.3006 7.66419 10.873L7.61145 10.7735L5.15051 5.89437Z" fill="#FF8C44"/>
</g>
<defs>
<linearGradient id="paint0_linear_1698_2169" x1="78.5353" y1="778.507" x2="663.307" y2="278.58" gradientUnits="userSpaceOnUse">
<stop stop-color="#D4202C"/>
<stop offset="0.04166" stop-color="#D82D2B" stop-opacity="0.958"/>
<stop offset="0.176" stop-color="#E25226" stop-opacity="0.824"/>
<stop offset="0.3167" stop-color="#EB7123" stop-opacity="0.683"/>
<stop offset="0.4635" stop-color="#F28920" stop-opacity="0.536"/>
<stop offset="0.6188" stop-color="#F69A1E" stop-opacity="0.381"/>
<stop offset="0.7886" stop-color="#F9A41D" stop-opacity="0.211"/>
<stop offset="1" stop-color="#FAA71D" stop-opacity="0"/>
</linearGradient>
<linearGradient id="paint1_linear_1698_2169" x1="446.655" y1="44.5801" x2="-138.122" y2="544.523" gradientUnits="userSpaceOnUse">
<stop stop-color="#D4202C"/>
<stop offset="0.04166" stop-color="#D82D2B" stop-opacity="0.958"/>
<stop offset="0.176" stop-color="#E25226" stop-opacity="0.824"/>
<stop offset="0.3167" stop-color="#EB7123" stop-opacity="0.683"/>
<stop offset="0.4635" stop-color="#F28920" stop-opacity="0.536"/>
<stop offset="0.6188" stop-color="#F69A1E" stop-opacity="0.381"/>
<stop offset="0.7886" stop-color="#F9A41D" stop-opacity="0.211"/>
<stop offset="1" stop-color="#FAA71D" stop-opacity="0"/>
</linearGradient>
</defs>
</svg>
