<svg width="15" height="15" viewBox="0 0 15 15" fill="none" xmlns="http://www.w3.org/2000/svg">
<mask id="mask0_1698_2150" style="mask-type:alpha" maskUnits="userSpaceOnUse" x="0" y="0" width="15" height="15">
<rect width="15" height="15" fill="#D9D9D9"/>
</mask>
<g mask="url(#mask0_1698_2150)">
<path d="M15 7.5C15 3.35786 11.6421 0 7.5 0C3.35786 0 0 3.35786 0 7.5C0 11.6421 3.35786 15 7.5 15C11.6421 15 15 11.6421 15 7.5Z" fill="#5865F2"/>
<path d="M10.2348 5.04153C11.1186 6.35025 11.5551 7.82645 11.3919 9.5259C11.3913 9.5331 11.3875 9.5397 11.3817 9.54403C10.7123 10.039 10.0639 10.3394 9.42447 10.5386C9.41949 10.5401 9.41417 10.54 9.40924 10.5383C9.40432 10.5367 9.40002 10.5335 9.39699 10.5292C9.24927 10.3222 9.11504 10.104 8.99747 9.87485C8.99072 9.86135 8.99687 9.8451 9.01077 9.83978C9.22392 9.7589 9.42662 9.66195 9.62159 9.54718C9.63694 9.53813 9.63792 9.51595 9.62374 9.5053C9.58237 9.47438 9.54137 9.44185 9.50214 9.40935C9.49482 9.40335 9.48492 9.40215 9.47662 9.4062C8.21084 9.99485 6.82427 9.99485 5.54352 9.4062C5.53519 9.40245 5.52532 9.40373 5.51819 9.40965C5.47904 9.44215 5.43797 9.47438 5.39697 9.5053C5.38279 9.51595 5.38397 9.53813 5.39942 9.54718C5.59439 9.65978 5.79709 9.7589 6.00994 9.84018C6.02374 9.8455 6.03029 9.86135 6.02344 9.87485C5.90842 10.1043 5.77419 10.3225 5.62374 10.5295C5.61719 10.5379 5.60642 10.5417 5.59624 10.5386C4.95989 10.3394 4.31139 10.039 3.64207 9.54403C3.63649 9.5397 3.63249 9.5328 3.63189 9.5256C3.49554 8.0556 3.77347 6.5672 4.78802 5.04123C4.79047 5.0372 4.79417 5.03405 4.79847 5.03218C5.29769 4.80145 5.83249 4.6317 6.39147 4.53475C6.40164 4.53318 6.41182 4.5379 6.41712 4.54698C6.48617 4.67013 6.56512 4.82805 6.61852 4.9571C7.20774 4.86645 7.80614 4.86645 8.40767 4.9571C8.46109 4.8308 8.53729 4.67013 8.60607 4.54698C8.60852 4.54248 8.61229 4.53888 8.61692 4.53668C8.62152 4.53448 8.62669 4.5338 8.63169 4.53475C9.19097 4.63198 9.72577 4.80173 10.2246 5.03218C10.229 5.03405 10.2326 5.0372 10.2348 5.04153ZM6.91807 7.8365C6.92424 7.40193 6.60962 7.04235 6.21469 7.04235C5.82302 7.04235 5.51144 7.39878 5.51144 7.8365C5.51144 8.27413 5.82917 8.63055 6.21469 8.63055C6.60649 8.63055 6.91807 8.27413 6.91807 7.8365ZM9.51849 7.8365C9.52464 7.40193 9.21004 7.04235 8.81522 7.04235C8.42342 7.04235 8.11184 7.39878 8.11184 7.8365C8.11184 8.27413 8.42957 8.63055 8.81522 8.63055C9.21004 8.63055 9.51849 8.27413 9.51849 7.8365Z" fill="white"/>
</g>
</svg>
