<svg width="15" height="15" viewBox="0 0 15 15" fill="none" xmlns="http://www.w3.org/2000/svg">
<g clip-path="url(#clip0_1694_2112)">
<path d="M13.5571 6.92301C14.3536 6.92301 14.9993 6.27732 14.9993 5.48083C14.9993 4.68434 14.3536 4.03865 13.557 4.03865C12.7605 4.03865 12.1147 4.6844 12.1147 5.48095V6.92301H13.5571ZM9.51853 6.92301C10.3151 6.92301 10.9608 6.27729 10.9608 5.48071V1.44251C10.9608 0.645954 10.3151 0.000213623 9.51853 0.000213623C8.72198 0.000213623 8.07623 0.645954 8.07623 1.44251V5.48071C8.07623 6.27729 8.72198 6.92301 9.51853 6.92301Z" fill="#2EB67D"/>
<path d="M1.442 8.07701C0.6455 8.07701 -0.000183105 8.7227 -0.000183105 9.51919C-0.000183105 10.3157 0.645565 10.9614 1.44206 10.9614C2.23862 10.9614 2.88442 10.3156 2.88442 9.51907V8.07701H1.442ZM5.48056 8.07701C4.68401 8.07701 4.03826 8.72276 4.03826 9.51931V13.5575C4.03826 14.3541 4.68401 14.9998 5.48056 14.9998C6.27711 14.9998 6.92286 14.3541 6.92286 13.5575V9.51931C6.92286 8.72276 6.27711 8.07701 5.48056 8.07701Z" fill="#E01E5A"/>
<path d="M8.07666 13.5578C8.07666 14.3543 8.72235 15 9.51884 15C10.3153 15 10.961 14.3542 10.961 13.5577C10.961 12.7611 10.3153 12.1153 9.51872 12.1153H8.07666V13.5578ZM8.07666 9.51921C8.07666 10.3158 8.72241 10.9615 9.51896 10.9615H13.5572C14.3537 10.9615 14.9995 10.3158 14.9995 9.51921C14.9995 8.72262 14.3537 8.0769 13.5572 8.0769H9.51896C8.72241 8.0769 8.07666 8.72262 8.07666 9.51921Z" fill="#ECB22E"/>
<path d="M6.92243 1.44218C6.92243 0.645686 6.27674 0 5.48025 0C4.68376 0 4.03807 0.645748 4.03807 1.44224C4.03807 2.2388 4.68382 2.8846 5.48037 2.8846H6.92243V1.44218ZM6.92243 5.48075C6.92243 4.6842 6.27671 4.03844 5.48013 4.03844H1.44193C0.645374 4.03844 -0.000366211 4.6842 -0.000366211 5.48075C-0.000366211 6.2773 0.645374 6.92305 1.44193 6.92305H5.48013C6.27671 6.92305 6.92243 6.2773 6.92243 5.48075Z" fill="#36C5F0"/>
</g>
<defs>
<clipPath id="clip0_1694_2112">
<rect width="15" height="15" fill="white"/>
</clipPath>
</defs>
</svg>
