<svg width="15" height="15" viewBox="0 0 15 15" fill="none" xmlns="http://www.w3.org/2000/svg">
<path d="M1.46418 0.433626C1.66807 0.309237 1.88051 0.211679 2.10408 0.139225C2.22814 0.0990165 2.35467 0.0683891 2.48299 0.043081C2.64686 0.0107591 2.8113 -3.50091e-05 2.9777 8.52527e-08C6.02828 0.000526501 9.07887 0.000335986 12.1295 0.000561593C12.2191 0.00057162 12.3078 0.0115461 12.3968 0.0234682C12.5845 0.0486208 12.7669 0.0947049 12.9451 0.156621C13.1051 0.212241 13.2599 0.280304 13.4089 0.362645C13.5757 0.454793 13.7318 0.561164 13.8797 0.68055C13.9891 0.768818 14.0909 0.865653 14.1847 0.969678C14.3194 1.11902 14.4452 1.27583 14.5498 1.44872C14.6936 1.68655 14.8093 1.93659 14.882 2.20541C14.9092 2.30611 14.9347 2.4074 14.9567 2.50934C14.9693 2.56741 14.9725 2.62744 14.9815 2.68636C15.0094 2.87055 14.9974 3.05596 14.9975 3.24082C14.9982 6.20017 14.9982 9.15953 14.9969 12.1189C14.9969 12.2046 14.9813 12.2905 14.9721 12.3761C14.9484 12.5953 14.8874 12.8054 14.8124 13.0115C14.7392 13.2126 14.6433 13.4027 14.5291 13.584C14.355 13.8605 14.1398 14.1005 13.8908 14.3104C13.7454 14.433 13.5881 14.5387 13.4216 14.6313C13.251 14.7261 13.0727 14.8031 12.8877 14.8635C12.7671 14.9029 12.6447 14.9375 12.5184 14.9559C12.4401 14.9673 12.3625 14.9838 12.2841 14.9941C12.238 15.0001 12.1909 14.9998 12.1442 14.9998C9.04685 15.0001 5.94948 15.0001 2.85212 14.9996C2.76764 14.9996 2.68391 14.988 2.59995 14.9768C2.41238 14.9518 2.23033 14.9053 2.05215 14.844C1.83329 14.7687 1.62565 14.6691 1.43007 14.5444C1.31197 14.4691 1.2012 14.3849 1.09319 14.2957C0.901784 14.1377 0.73359 13.9585 0.586953 13.7591C0.458251 13.5841 0.349703 13.3973 0.260889 13.1984C0.174415 13.0046 0.107651 12.805 0.0628603 12.5982C0.0418736 12.5013 0.0265809 12.4028 0.0152931 12.3043C0.00565428 12.2202 0.0016093 12.135 0.00159426 12.0503C0.000937642 9.02575 0.00156923 6.00122 3.64299e-07 2.9767C-0.000119932 2.74386 0.0295532 2.51643 0.0880925 2.29233C0.166887 1.99072 0.286001 1.70585 0.452266 1.44146C0.531185 1.31596 0.615884 1.19472 0.715129 1.08413C0.765002 1.02856 0.811843 0.970079 0.863911 0.91668C1.04005 0.736044 1.23397 0.577052 1.4491 0.444571C1.45334 0.441964 1.45717 0.438685 1.46418 0.433626ZM2.69779 10.5704C2.90545 11.0417 3.20788 11.4399 3.62401 11.7453C4.30519 12.2451 5.0644 12.4165 5.89551 12.2664C5.93734 12.2589 5.96243 12.2679 5.99031 12.2983C6.24424 12.5751 6.54241 12.7921 6.88344 12.9493C7.40294 13.1887 7.94729 13.2627 8.51197 13.1824C9.1394 13.0931 9.67901 12.822 10.1304 12.3781C10.4451 12.0685 10.6751 11.7035 10.8189 11.2856C10.8354 11.2378 10.8588 11.2155 10.9096 11.2037C11.4738 11.0731 11.9589 10.7994 12.3503 10.3727C12.8846 9.79019 13.1488 9.10103 13.1295 8.30763C13.1185 7.85334 13.0007 7.42703 12.7864 7.02697C12.6842 6.83614 12.5611 6.65965 12.4178 6.49752C12.3977 6.47476 12.3918 6.45511 12.4024 6.42607C12.4171 6.38533 12.4278 6.34302 12.4388 6.30103C12.5797 5.76696 12.5703 5.23488 12.4021 4.70935C12.2112 4.11252 11.8674 3.61912 11.3598 3.24914C10.6853 2.75745 9.93263 2.58971 9.1111 2.73627C9.06365 2.74474 9.03481 2.7366 9.00296 2.70154C8.82543 2.50609 8.62234 2.34079 8.39617 2.20491C7.837 1.86898 7.23128 1.73925 6.58418 1.80944C5.91564 1.88196 5.34175 2.1593 4.86344 2.63076C4.5465 2.94317 4.31736 3.31277 4.17392 3.73445C4.16159 3.77069 4.14404 3.78673 4.1063 3.79534C3.55432 3.92124 3.07943 4.18569 2.68396 4.59179C2.43028 4.85229 2.23469 5.15157 2.09388 5.48596C1.85226 6.05975 1.80219 6.65191 1.94003 7.25838C2.04492 7.71988 2.25438 8.13035 2.56472 8.48789C2.59796 8.52619 2.60232 8.55708 2.58793 8.60375C2.4931 8.91123 2.45167 9.22602 2.46483 9.54796C2.47925 9.90066 2.55543 10.2391 2.69779 10.5704Z" fill="#10A37F"/>
<path d="M2.69606 10.5669C2.55532 10.2391 2.47913 9.90068 2.46472 9.54798C2.45155 9.22604 2.49299 8.91125 2.58781 8.60378C2.60221 8.55711 2.59785 8.52622 2.5646 8.48791C2.25426 8.13037 2.0448 7.7199 1.93991 7.25841C1.80207 6.65194 1.85214 6.05978 2.09377 5.48598C2.23457 5.1516 2.43017 4.85232 2.68384 4.59182C3.07931 4.18571 3.5542 3.92126 4.10618 3.79536C4.14392 3.78676 4.16148 3.77071 4.1738 3.73447C4.31724 3.31279 4.54639 2.94319 4.86332 2.63079C5.34163 2.15932 5.91552 1.88197 6.58406 1.80946C7.23116 1.73928 7.83688 1.869 8.39606 2.20494C8.62221 2.34081 8.82532 2.50611 9.00284 2.70156C9.03469 2.73663 9.06353 2.74476 9.11098 2.7363C9.93252 2.58973 10.6852 2.75747 11.3597 3.24916C11.8672 3.61915 12.2111 4.11255 12.402 4.70937C12.5702 5.23491 12.5796 5.76699 12.4387 6.30105C12.4276 6.34304 12.417 6.38535 12.4022 6.42609C12.3917 6.45513 12.3976 6.47478 12.4177 6.49754C12.561 6.65968 12.6841 6.83616 12.7863 7.02699C13.0006 7.42706 13.1184 7.85337 13.1294 8.30765C13.1487 9.10105 12.8845 9.79022 12.3502 10.3728C11.9588 10.7994 11.4737 11.0731 10.9095 11.2037C10.8587 11.2155 10.8353 11.2378 10.8188 11.2857C10.675 11.7035 10.445 12.0685 10.1303 12.3781C9.67889 12.822 9.13929 13.0931 8.51185 13.1824C7.94717 13.2627 7.40282 13.1888 6.88332 12.9493C6.54229 12.7921 6.24412 12.5751 5.9902 12.2983C5.96231 12.2679 5.93722 12.2589 5.89539 12.2664C5.06428 12.4165 4.30507 12.2451 3.6239 11.7453C3.20776 11.4399 2.90533 11.0417 2.69606 10.5669ZM9.31807 5.39185C9.22544 5.33848 9.13236 5.28589 9.04048 5.23127C9.01277 5.2148 8.99015 5.21429 8.96185 5.23073C8.66143 5.40523 8.36035 5.57859 8.05962 5.75255C8.0505 5.75782 8.04321 5.76622 8.0325 5.77535C8.05057 5.78656 8.06441 5.79568 8.07873 5.80396C8.6847 6.15398 9.29072 6.50392 9.89672 6.8539C10.1918 7.02429 10.4867 7.19486 10.7819 7.36501C10.8302 7.39285 10.8735 7.42596 10.9075 7.47065C10.9636 7.5443 10.9837 7.62793 10.9837 7.71952C10.983 8.53825 10.9833 9.35698 10.9833 10.1757C10.9833 10.2359 10.983 10.296 10.9835 10.3562C10.9836 10.3686 10.9868 10.381 10.9897 10.4021C11.0684 10.3667 11.1428 10.3373 11.2135 10.3009C11.9697 9.9116 12.4274 9.12904 12.3759 8.281C12.3325 7.56617 12.0046 7.00421 11.4087 6.6051C11.2509 6.49935 11.0813 6.41102 10.9165 6.31568C10.3859 6.00873 9.85513 5.70223 9.31807 5.39185ZM8.01894 11.2267C7.80484 11.3503 7.5905 11.4735 7.3767 11.5977C7.16398 11.7212 6.94964 11.842 6.73422 11.9705C6.75304 11.9864 6.7653 11.9975 6.77835 12.0076C7.19669 12.3315 7.6707 12.4839 8.19876 12.46C8.99429 12.4239 9.70556 11.9411 10.0383 11.2158C10.1684 10.9323 10.2333 10.6342 10.2335 10.3223C10.2338 9.4701 10.2336 8.61792 10.2336 7.76574C10.2336 7.74402 10.232 7.72216 10.2339 7.7006C10.2368 7.66771 10.2222 7.64877 10.194 7.6331C10.105 7.58359 10.0172 7.53183 9.92894 7.48085C9.72358 7.36215 9.51838 7.24319 9.31271 7.12502C9.29665 7.1158 9.28204 7.09798 9.25605 7.10728V7.17709C9.25605 8.20807 9.25608 9.23903 9.25591 10.27C9.25591 10.2967 9.25638 10.3237 9.25227 10.35C9.2332 10.4716 9.16902 10.5623 9.06227 10.6238C8.71647 10.8233 8.37097 11.0233 8.01894 11.2267ZM7.20695 9.70262C6.79771 9.939 6.38816 10.1748 5.9794 10.4121C5.84095 10.4924 5.70537 10.4932 5.56696 10.4121C5.36089 10.2914 5.1534 10.1731 4.94662 10.0536C4.39133 9.7327 3.83611 9.41168 3.28074 9.09091C3.27154 9.0856 3.26079 9.08295 3.24834 9.07811C3.24514 9.09018 3.24233 9.09788 3.24113 9.10582C3.2135 9.28833 3.20759 9.47132 3.22804 9.65503C3.28656 10.1808 3.50675 10.6279 3.89178 10.9893C4.30077 11.3732 4.7914 11.5637 5.35113 11.5689C5.72976 11.5724 6.08503 11.4765 6.4139 11.2874C6.78747 11.0726 7.16049 10.8569 7.53364 10.6415C7.91834 10.4193 8.30278 10.1967 8.68784 9.97516C8.71822 9.95769 8.73447 9.9389 8.73433 9.90114C8.73303 9.55697 8.73362 9.21278 8.73338 8.86859C8.73337 8.85628 8.73048 8.84397 8.72798 8.82404C8.221 9.11695 7.71399 9.40981 7.20695 9.70262ZM2.66099 6.17987C2.59851 6.49266 2.60183 6.80477 2.68063 7.11387C2.82944 7.69761 3.16165 8.14748 3.68101 8.45384C4.10116 8.70167 4.52514 8.94298 4.94744 9.18717C5.28148 9.38032 5.61563 9.57328 5.94941 9.76692C5.97838 9.78373 6.00209 9.79299 6.03624 9.77305C6.33623 9.5978 6.63745 9.42464 6.93814 9.2506C6.94725 9.24532 6.95464 9.23705 6.96592 9.22758C6.94755 9.21619 6.93377 9.20712 6.9195 9.19888C6.70687 9.07605 6.49417 8.95335 6.28151 8.83058C5.59571 8.43468 4.91025 8.03823 4.2239 7.64331C4.08147 7.56136 4.01328 7.44276 4.01355 7.27801C4.01499 6.41072 4.01422 5.54344 4.01422 4.67616V4.61367C4.00521 4.6116 4.00161 4.60953 3.99888 4.61036C3.98614 4.61421 3.97346 4.61836 3.96111 4.62329C3.66461 4.74161 3.40752 4.91779 3.19053 5.15178C2.92062 5.44283 2.74641 5.78384 2.66099 6.17987ZM4.88139 3.97815C4.80018 4.20901 4.76216 4.44729 4.76202 4.69153C4.76152 5.55706 4.76206 6.42259 4.76109 7.28812C4.76104 7.32987 4.77395 7.3547 4.81106 7.3759C5.10406 7.54324 5.39585 7.71271 5.68811 7.88135C5.70196 7.88934 5.71668 7.8958 5.73595 7.90545C5.7371 7.88459 5.73855 7.8701 5.73861 7.85562C5.73953 7.62673 5.7408 7.39785 5.74097 7.16897C5.74132 6.68607 5.74107 6.20318 5.74107 5.72029C5.74108 5.38778 5.74129 5.05527 5.74094 4.72275C5.74086 4.64207 5.7599 4.56749 5.80493 4.49991C5.84302 4.44275 5.89603 4.40361 5.95469 4.36975C6.7142 3.93138 7.47345 3.49256 8.23267 3.05368C8.24187 3.04837 8.24985 3.04092 8.26219 3.03161C8.24029 3.01382 8.22287 2.99853 8.20432 2.98476C7.64971 2.57328 7.03298 2.43673 6.36588 2.61221C5.64021 2.80309 5.14905 3.26804 4.88139 3.97815ZM6.96326 5.77928C7.64882 5.38332 8.33459 4.98772 9.01977 4.5911C9.15657 4.51191 9.29102 4.50996 9.42795 4.58927C9.77627 4.79103 10.1251 4.99193 10.4736 5.1933C10.8872 5.43227 11.3008 5.67139 11.7144 5.91031C11.7241 5.91592 11.7348 5.91982 11.7507 5.92708C11.7544 5.90726 11.758 5.8916 11.7603 5.87574C11.7778 5.75312 11.7849 5.63004 11.7807 5.50609C11.768 5.12516 11.6618 4.77229 11.4615 4.44858C11.2366 4.08495 10.9291 3.81246 10.5411 3.63322C10.1876 3.46998 9.81592 3.40691 9.4283 3.44593C9.11983 3.47698 8.83201 3.57271 8.56361 3.72853C8.1866 3.94741 7.80853 4.16448 7.43093 4.38235C7.05767 4.59773 6.68459 4.81341 6.31091 5.02804C6.28058 5.04546 6.26364 5.06424 6.26376 5.10187C6.26489 5.44604 6.26438 5.79023 6.26466 6.13441C6.26467 6.14663 6.268 6.15886 6.27089 6.1787C6.50364 6.04441 6.73026 5.91365 6.96326 5.77928ZM8.04233 8.61342C8.25923 8.48808 8.47591 8.36237 8.69329 8.23788C8.72047 8.22231 8.73449 8.20613 8.73439 8.17196C8.73314 7.72427 8.73331 7.27658 8.73409 6.82889C8.73414 6.8003 8.72506 6.78377 8.70003 6.76937C8.31213 6.54625 7.92459 6.32251 7.53768 6.09767C7.50895 6.08098 7.48806 6.08216 7.46009 6.09841C7.07319 6.32319 6.68581 6.54715 6.29796 6.77029C6.27273 6.7848 6.26387 6.80129 6.26392 6.82975C6.26466 7.27744 6.26472 7.72514 6.26379 8.17283C6.26373 8.20391 6.27537 8.22069 6.30131 8.23562C6.68633 8.4572 7.07112 8.67917 7.45507 8.9026C7.48898 8.92233 7.51363 8.92009 7.54614 8.90091C7.70867 8.80504 7.87259 8.71153 8.04233 8.61342Z" fill="#FAFBFB"/>
<path d="M9.3214 5.39367C9.85528 5.7022 10.3861 6.0087 10.9166 6.31566C11.0814 6.411 11.251 6.49932 11.4089 6.60507C12.0047 7.00418 12.3326 7.56614 12.376 8.28098C12.4275 9.12902 11.9699 9.91157 11.2137 10.3008C11.1429 10.3372 11.0686 10.3667 10.9899 10.4021C10.9869 10.381 10.9838 10.3686 10.9837 10.3561C10.9832 10.296 10.9834 10.2358 10.9834 10.1757C10.9834 9.35696 10.9831 8.53822 10.9838 7.71949C10.9839 7.6279 10.9638 7.54427 10.9077 7.47062C10.8737 7.42593 10.8303 7.39283 10.782 7.36499C10.4869 7.19483 10.1919 7.02426 9.89687 6.85387C9.29088 6.5039 8.68486 6.15396 8.07889 5.80393C8.06457 5.79566 8.05072 5.78653 8.03265 5.77532C8.04337 5.7662 8.05066 5.7578 8.05977 5.75253C8.36051 5.57856 8.66159 5.4052 8.96201 5.2307C8.99031 5.21426 9.01293 5.21477 9.04064 5.23124C9.13251 5.28586 9.2256 5.33845 9.3214 5.39367Z" fill="#11A480"/>
<path d="M8.02219 11.2248C8.37101 11.0233 8.71651 10.8232 9.06231 10.6238C9.16906 10.5622 9.23324 10.4715 9.25231 10.3499C9.25642 10.3237 9.25595 10.2966 9.25595 10.27C9.25612 9.23898 9.25609 8.20802 9.25609 7.17704V7.10723C9.28208 7.09793 9.29669 7.11575 9.31275 7.12497C9.51841 7.24314 9.72362 7.3621 9.92897 7.4808C10.0172 7.53178 10.105 7.58354 10.194 7.63305C10.2222 7.64872 10.2368 7.66766 10.2339 7.70055C10.232 7.72211 10.2336 7.74397 10.2336 7.76569C10.2336 8.61787 10.2338 9.47004 10.2335 10.3222C10.2334 10.6341 10.1684 10.9322 10.0384 11.2157C9.7056 11.9411 8.99433 12.4239 8.1988 12.4599C7.67074 12.4838 7.19673 12.3315 6.77839 12.0075C6.76534 11.9974 6.75308 11.9863 6.73425 11.9704C6.94968 11.842 7.16401 11.7211 7.37674 11.5976C7.59054 11.4735 7.80488 11.3502 8.02219 11.2248Z" fill="#11A480"/>
<path d="M7.21031 9.70078C7.71636 9.4085 8.21921 9.11799 8.72812 8.82397C8.73063 8.84391 8.73352 8.85622 8.73353 8.86853C8.73377 9.21272 8.73318 9.55691 8.73448 9.90109C8.73462 9.93884 8.71836 9.95763 8.68799 9.9751C8.30293 10.1966 7.91849 10.4192 7.53379 10.6414C7.16063 10.8569 6.78761 11.0726 6.41405 11.2873C6.08518 11.4764 5.72991 11.5723 5.35127 11.5688C4.79154 11.5636 4.30092 11.3732 3.89193 10.9893C3.50689 10.6278 3.28671 10.1808 3.22819 9.65497C3.20774 9.47126 3.21364 9.28827 3.24127 9.10576C3.24248 9.09782 3.24529 9.09013 3.24848 9.07805C3.26094 9.08289 3.27168 9.08554 3.28089 9.09085C3.83626 9.41162 4.39147 9.73264 4.94677 10.0536C5.15354 10.173 5.36103 10.2913 5.5671 10.412C5.70552 10.4931 5.84109 10.4924 5.97955 10.412C6.3883 10.1748 6.79785 9.93894 7.21031 9.70078Z" fill="#11A380"/>
<path d="M2.66211 6.17564C2.74664 5.78378 2.92086 5.44277 3.19077 5.15172C3.40775 4.91773 3.66485 4.74155 3.96134 4.62323C3.97369 4.6183 3.98638 4.61415 3.99911 4.61029C4.00184 4.60947 4.00544 4.61154 4.01446 4.6136V4.6761C4.01446 5.54338 4.01522 6.41066 4.01379 7.27794C4.01352 7.4427 4.0817 7.56129 4.22413 7.64324C4.91049 8.03817 5.59595 8.43462 6.28174 8.83051C6.49441 8.95328 6.70711 9.07598 6.91973 9.19881C6.93401 9.20706 6.94779 9.21613 6.96616 9.22752C6.95487 9.23699 6.94749 9.24526 6.93838 9.25053C6.63768 9.42458 6.33647 9.59773 6.03647 9.77299C6.00232 9.79293 5.97861 9.78367 5.94964 9.76686C5.61587 9.57321 5.28172 9.38026 4.94767 9.1871C4.52538 8.94291 4.10139 8.70161 3.68125 8.45378C3.16189 8.14742 2.82967 7.69755 2.68087 7.11381C2.60207 6.80471 2.59874 6.49259 2.66211 6.17564Z" fill="#11A380"/>
<path d="M4.88288 3.97436C5.14926 3.26798 5.64041 2.80303 6.36609 2.61215C7.0332 2.43668 7.64992 2.57322 8.20453 2.9847C8.22308 2.99847 8.2405 3.01376 8.26239 3.03155C8.25005 3.04086 8.24208 3.04831 8.23288 3.05362C7.47366 3.4925 6.71441 3.93132 5.9549 4.36969C5.89624 4.40355 5.84322 4.44269 5.80513 4.49985C5.7601 4.56743 5.74106 4.64201 5.74114 4.7227C5.74149 5.05521 5.74128 5.38772 5.74128 5.72023C5.74128 6.20312 5.74153 6.68601 5.74118 7.16891C5.74101 7.39779 5.73974 7.62667 5.73881 7.85556C5.73876 7.87005 5.73731 7.88453 5.73616 7.90539C5.71689 7.89574 5.70216 7.88929 5.68832 7.88129C5.39606 7.71265 5.10426 7.54318 4.81126 7.37584C4.77415 7.35465 4.76124 7.32982 4.76129 7.28806C4.76226 6.42253 4.76172 5.557 4.76222 4.69147C4.76236 4.44723 4.80039 4.20895 4.88288 3.97436Z" fill="#11A37F"/>
<path d="M6.96011 5.78105C6.73029 5.91361 6.50368 6.04436 6.27093 6.17866C6.26803 6.15881 6.26471 6.14659 6.2647 6.13436C6.26442 5.79019 6.26493 5.446 6.26379 5.10182C6.26367 5.06419 6.28062 5.04542 6.31095 5.028C6.68463 4.81336 7.05771 4.59768 7.43097 4.38232C7.80856 4.16443 8.18663 3.94737 8.56365 3.72849C8.83204 3.57267 9.11986 3.47694 9.42834 3.44589C9.81595 3.40687 10.1877 3.46994 10.5411 3.63318C10.9291 3.81241 11.2366 4.08491 11.4616 4.44853C11.6618 4.77225 11.768 5.12511 11.7808 5.50604C11.7849 5.63 11.7778 5.75308 11.7603 5.8757C11.7581 5.89156 11.7545 5.90722 11.7507 5.92703C11.7349 5.91978 11.7242 5.91588 11.7144 5.91026C11.3008 5.67135 10.8873 5.43223 10.4737 5.19326C10.1251 4.99188 9.77631 4.79099 9.42799 4.58923C9.29106 4.50991 9.1566 4.51187 9.0198 4.59106C8.33463 4.98768 7.64886 5.38328 6.96011 5.78105Z" fill="#11A380"/>
<path d="M8.03942 8.61526C7.87283 8.71149 7.70891 8.80499 7.54639 8.90087C7.51388 8.92004 7.48923 8.92229 7.45532 8.90256C7.07137 8.67913 6.68658 8.45715 6.30156 8.23558C6.27561 8.22065 6.26398 8.20386 6.26404 8.17278C6.26497 7.72509 6.26491 7.2774 6.26416 6.82971C6.26411 6.80125 6.27299 6.78476 6.2982 6.77025C6.68605 6.54711 7.07343 6.32315 7.46034 6.09837C7.48831 6.08212 7.5092 6.08093 7.53793 6.09763C7.92483 6.32246 8.31238 6.5462 8.70028 6.76933C8.72531 6.78373 8.73439 6.80026 8.73434 6.82885C8.73356 7.27654 8.73339 7.72423 8.73463 8.17191C8.73473 8.20608 8.72071 8.22227 8.69353 8.23783C8.47616 8.36233 8.25948 8.48804 8.03942 8.61526L8.03942 8.61526Z" fill="#11A37F"/>
</svg>
